<?xml version="1.0" encoding="UTF-8"?>
<svg width="99px" height="130px" viewBox="0 0 99 130" version="1.1" xmlns="http://www.w3.org/2000/svg" xmlns:xlink="http://www.w3.org/1999/xlink">
    <!-- Generator: Sketch 48.2 (47327) - http://www.bohemiancoding.com/sketch -->
    <title>Page 1</title>
    <desc>Created with Sketch.</desc>
    <defs>
        <polygon id="path-1" points="0 0.1794 99 0.1794 99 129.999856 0 129.999856"></polygon>
    </defs>
    <g id="Desktop-HD" stroke="none" stroke-width="1" fill="none" fill-rule="evenodd" transform="translate(-671.000000, -285.000000)">
        <g id="Page-1" transform="translate(671.000000, 285.000000)">
            <path d="M49.5,81.4436393 C42.5102333,81.4436393 36.8238095,87.1250684 36.8238095,94.1086957 C36.8238095,101.092323 42.5102333,106.773752 49.5,106.773752 C56.4897667,106.773752 62.1761905,101.092323 62.1761905,94.1086957 C62.1761905,87.1250684 56.4897667,81.4436393 49.5,81.4436393 M49.5,109.652174 C40.9219643,109.652174 33.9428571,102.679485 33.9428571,94.1086957 C33.9428571,85.5379066 40.9219643,78.5652174 49.5,78.5652174 C58.0780357,78.5652174 65.0571429,85.5379066 65.0571429,94.1086957 C65.0571429,102.679485 58.0780357,109.652174 49.5,109.652174" id="Fill-1" fill="#72C9BB"></path>
            <path d="M49.5,89.9873188 C47.2253571,89.9873188 45.375,91.8360507 45.375,94.1086957 C45.375,96.3813406 47.2253571,98.2300725 49.5,98.2300725 C51.7746429,98.2300725 53.625,96.3813406 53.625,94.1086957 C53.625,91.8360507 51.7746429,89.9873188 49.5,89.9873188 M49.5,101.173913 C45.6009911,101.173913 42.4285714,98.0045743 42.4285714,94.1086957 C42.4285714,90.212817 45.6009911,87.0434783 49.5,87.0434783 C53.3990089,87.0434783 56.5714286,90.212817 56.5714286,94.1086957 C56.5714286,98.0045743 53.3990089,101.173913 49.5,101.173913" id="Fill-3" fill="#72C9BB"></path>
            <g id="Group-7">
                <mask id="mask-2" fill="white">
                    <use xlink:href="#path-1"></use>
                </mask>
                <g id="Clip-6"></g>
                <path d="M96.1052632,96.9099444 C96.1052632,98.5288778 94.7855526,99.8459222 93.1636316,99.8459222 L85.7516579,99.8459222 C86.0880263,97.8447889 86.2631579,95.8144778 86.2631579,93.7792556 C86.2631579,91.7437444 86.0880263,89.7134333 85.7516579,87.7125889 L93.1636316,87.7125889 C94.7855526,87.7125889 96.1052632,89.0296333 96.1052632,90.6482778 L96.1052632,96.9099444 Z M82.8152368,99.8459222 L73.9393947,99.8459222 C73.9689211,99.7269 73.9943947,99.6070111 74.0221842,99.4877 C74.0682105,99.2918333 74.1142368,99.0959667 74.1556316,98.8980778 C74.1854474,98.7556556 74.2109211,98.6123667 74.2381316,98.4693667 C74.2743158,98.2781222 74.3119474,98.0874556 74.3437895,97.8947667 C74.3695526,97.7393444 74.3906842,97.5833444 74.4132632,97.4273444 C74.4401842,97.2456333 74.4685526,97.0645 74.4911316,96.8816333 C74.5128421,96.7059889 74.5293421,96.5297667 74.5472895,96.3535444 C74.5643684,96.1885889 74.5834737,96.0245 74.5973684,95.8583889 C74.6150263,95.6469222 74.6257368,95.4348778 74.6378947,95.2228333 C74.6454211,95.0896556 74.6564211,94.9576333 74.6622105,94.8241667 C74.6763947,94.4763444 74.6842105,94.1282333 74.6842105,93.7792556 C74.6842105,93.4733222 74.6769737,93.1691222 74.6659737,92.8655 C74.6636579,92.8031 74.6613421,92.7401222 74.6587368,92.6777222 C74.6454211,92.3741 74.6277632,92.0716333 74.6040263,91.7711889 C74.6017105,91.7457667 74.5991053,91.7203444 74.5970789,91.6949222 C74.5716053,91.3910111 74.5412105,91.0888333 74.5050263,90.7881 C74.5021316,90.7647 74.4998158,90.7410111 74.4972105,90.7173222 C74.4575526,90.3957889 74.4118158,90.0759889 74.3602895,89.7582111 C74.3579737,89.7429 74.3550789,89.7275889 74.3527632,89.7122778 C74.2421842,89.0365667 74.1043947,88.3695222 73.9408421,87.7125889 L82.8152368,87.7125889 C83.1799737,89.7099667 83.3684211,91.7417222 83.3684211,93.7792556 C83.3684211,95.8162111 83.1799737,97.8485444 82.8152368,99.8459222 Z M86.8646842,117.126678 C88.1076842,118.166967 88.2712368,120.022211 87.2291316,121.2627 L83.1976316,126.061144 C82.1555263,127.301344 80.2962368,127.464567 79.0538158,126.424567 L73.3749211,121.672633 C76.4630263,119.033056 79.1256053,115.866256 81.1895526,112.377922 L86.8646842,117.126678 Z M74.1703947,102.734811 L82.1584211,102.734811 C81.6764474,104.490678 81.0537895,106.206389 80.2953684,107.8597 L74.1703947,102.734811 Z M71.1248421,119.790233 L64.3201842,114.096811 C65.6396053,113.134233 66.8600263,112.042811 67.9675526,110.847967 C68.0457105,110.763611 68.1241579,110.679256 68.2011579,110.593744 C68.2677368,110.520078 68.3334474,110.445833 68.3988684,110.371589 C68.5004737,110.256611 68.6006316,110.140478 68.7002105,110.023478 C68.7465263,109.968878 68.7931316,109.914567 68.8394474,109.859678 C69.1497632,109.488456 69.4493684,109.108567 69.7382632,108.719722 C69.7414474,108.715967 69.7443421,108.711922 69.7472368,108.707589 C69.8896579,108.515767 70.0288947,108.321633 70.1661053,108.125478 C70.1814474,108.103522 70.1967895,108.081567 70.2121316,108.059611 C70.345,107.868078 70.4755526,107.674522 70.6032105,107.479233 C70.6095789,107.4697 70.6159474,107.460167 70.6223158,107.450633 C70.8967368,107.029722 71.1587105,106.600433 71.4082368,106.162767 C71.4148947,106.150922 71.4215526,106.139078 71.4282105,106.127233 C71.5399474,105.9305 71.6487895,105.732033 71.7553158,105.531833 C71.7735526,105.497744 71.7917895,105.463078 71.8097368,105.4287 C71.9116316,105.235433 72.0112105,105.040433 72.1081842,104.843989 C72.1157105,104.828967 72.1235263,104.813944 72.1313421,104.798633 L78.9397632,110.495522 C76.9261842,114.014478 74.2528947,117.1937 71.1248421,119.790233 Z M69.7631579,124.062611 C69.7631579,125.452744 67.5880526,127.001478 64.4672368,127.001478 L34.5327632,127.001478 C31.4119474,127.001478 29.2368421,125.452744 29.2368421,124.062611 L29.2368421,122.421144 L37.2405,115.723833 C40.8710789,117.752411 45.0516579,118.912589 49.5,118.912589 C53.9483421,118.912589 58.1300789,117.753856 61.7609474,115.725567 L69.7631579,122.420856 L69.7631579,124.062611 Z M20.0602368,110.495522 L26.8686579,104.798633 C26.9375526,104.938744 27.0105,105.077122 27.0817105,105.216078 C27.1060263,105.263456 27.1297632,105.311122 27.1543684,105.358211 C27.4293684,105.884567 27.7228947,106.4011 28.0343684,106.906367 C28.0679474,106.961256 28.1032632,107.015278 28.1374211,107.069878 C28.2572632,107.261411 28.3794211,107.451211 28.5047632,107.639278 C28.5528158,107.7115 28.6014474,107.783144 28.6500789,107.854789 C28.7702105,108.031589 28.8926579,108.206367 29.0168421,108.379989 C29.0631579,108.444411 29.1094737,108.509411 29.1563684,108.573544 C29.3103684,108.784433 29.4678421,108.992722 29.6287895,109.198989 C29.6441316,109.218922 29.6594737,109.239722 29.6753947,109.259944 C30.0534474,109.741811 30.4500263,110.209522 30.8622368,110.663078 C30.8712105,110.6729 30.8801842,110.682144 30.8888684,110.691967 C32.0337368,111.948344 33.3030789,113.092633 34.6798158,114.096811 L32.0580526,116.290344 L27.8751579,119.790233 C24.7471053,117.1937 22.0738158,114.014478 20.0602368,110.495522 Z M19.9464737,126.424567 C18.7034737,127.464567 16.8444737,127.301633 15.8020789,126.061144 L11.7711579,121.2627 C10.7287632,120.022211 10.8923158,118.166967 12.1353158,117.126678 L17.8104474,112.377922 C19.8743947,115.866256 22.5369737,119.033056 25.6253684,121.672922 L19.9464737,126.424567 Z M24.8296053,102.734811 L18.7040526,107.860278 C18.3274474,107.0407 17.9829737,106.205811 17.6752632,105.3637 C17.3600263,104.502233 17.0835789,103.621989 16.8395526,102.734811 L24.8296053,102.734811 Z M16.1789737,99.8459222 C15.8171316,97.8528778 15.6315789,95.8179444 15.6315789,93.7792556 C15.6315789,91.7402778 15.8171316,89.7053444 16.1789737,87.7125889 L25.0591579,87.7125889 C25.0562632,87.7253 25.0533684,87.7383 25.0501842,87.7510111 C25.0472895,87.7619889 25.0452632,87.7732556 25.0426579,87.7839444 C24.9731842,88.0664778 24.9095,88.3513222 24.8495789,88.6373222 C24.8319211,88.7216778 24.8154211,88.8057444 24.7986316,88.8901 C24.7531842,89.1177444 24.7112105,89.3468333 24.6718421,89.5765 C24.6585263,89.6568111 24.6440526,89.7365444 24.6313158,89.8168556 C24.5832632,90.1161444 24.5395526,90.4168778 24.5027895,90.7196333 C24.4975789,90.7606556 24.4941053,90.8019667 24.4894737,90.8432778 C24.4585,91.1047222 24.4321579,91.3676111 24.4095789,91.6316556 C24.4011842,91.7267 24.3942368,91.8217444 24.3875789,91.9167889 C24.3710789,92.1380778 24.3577632,92.3599444 24.3470526,92.5826778 C24.343,92.6745444 24.3377895,92.7664111 24.3343158,92.8582778 C24.3230263,93.1642111 24.3157895,93.4707222 24.3157895,93.7792556 C24.3157895,94.0875 24.3230263,94.3943 24.3343158,94.6999444 C24.3377895,94.7918111 24.343,94.8836778 24.3470526,94.9755444 C24.3577632,95.1982778 24.3710789,95.4201444 24.3875789,95.6411444 C24.3942368,95.7364778 24.4011842,95.8318111 24.4095789,95.9268556 C24.4321579,96.1906111 24.4585,96.4535 24.4894737,96.7149444 C24.4941053,96.7562556 24.4975789,96.7972778 24.5027895,96.8383 C24.5395526,97.1413444 24.5832632,97.4420778 24.6313158,97.7413667 C24.6440526,97.8216778 24.6585263,97.9014111 24.6718421,97.9811444 C24.7109211,98.2113889 24.7534737,98.4404778 24.7986316,98.6684111 C24.8154211,98.7524778 24.8316316,98.8365444 24.8495789,98.9203222 C24.9095,99.2074778 24.9731842,99.4926111 25.0429474,99.7760111 C25.0455526,99.7861222 25.0475789,99.7965222 25.0501842,99.8066333 C25.0533684,99.8196333 25.0559737,99.8329222 25.0591579,99.8459222 L16.1789737,99.8459222 Z M12.1353158,70.4315444 C10.8923158,69.3915444 10.7287632,67.5360111 11.7708684,66.2955222 L15.8023684,61.4970778 C16.8438947,60.2568778 18.7031842,60.0936556 19.9461842,61.1336556 L24.8174474,65.2098778 C25.0762368,65.4450333 25.3379211,65.6767222 25.6033684,65.9037889 C22.5245263,68.5399 19.8697632,71.7000556 17.8104474,75.1803 L12.1353158,70.4315444 Z M15.3421053,37.1570333 C15.3421053,26.4083444 20.2689474,16.5084111 28.8590789,9.99598889 C34.3113158,5.86256667 40.8056579,3.48472222 47.6398421,3.1187 C48.2711842,3.08518889 48.8854474,3.06814444 49.5,3.06814444 C50.1142632,3.06814444 50.7285263,3.08518889 51.3595789,3.1187 L51.3598684,3.1187 C52.0470789,3.15567778 52.7397895,3.21374444 53.4191842,3.29116667 C56.8697105,3.68434444 58.4152105,6.36898889 58.4163684,8.85516667 C58.4172368,11.3297889 56.8807105,14.0034556 53.4458158,14.3975 C52.8165,14.4697222 52.1773421,14.5251889 51.5448421,14.5624556 L47.4265,14.5942333 C47.2895789,14.5951 47.1538158,14.6029 47.0218158,14.6173444 C35.4799211,15.8679444 26.7763158,25.5578556 26.7763158,37.1570333 C26.7763158,48.6709889 35.4087105,58.3528111 46.8562368,59.6779444 C47.2525263,59.7238778 47.6682105,59.7360111 48.1611842,59.7169444 C49.2310789,59.6747667 50.2702895,59.6825667 51.3601579,59.7409222 C57.4107368,60.0650556 63.5692895,62.2311444 68.8872105,65.8702778 L61.7609474,71.8326556 C58.1300789,69.8043667 53.9483421,68.6459222 49.5,68.6459222 C45.0516579,68.6459222 40.8699211,69.8043667 37.2390526,71.8326556 L28.952,64.8987444 L28.9543158,64.8955667 C28.9201579,64.8695667 28.8868684,64.8421222 28.8524211,64.8158333 L26.686,63.0030556 C19.6292105,56.5429222 15.3421053,46.8975 15.3421053,37.1570333 Z M27.2357105,92.7612111 C27.2406316,92.6549 27.2487368,92.5491667 27.2551053,92.4431444 C27.2692895,92.2079889 27.2860789,91.9734111 27.3075,91.7402778 C27.3182105,91.6238556 27.3303684,91.5071444 27.3428158,91.3910111 C27.3677105,91.1601889 27.3966579,90.9305222 27.4285,90.7017222 C27.4432632,90.5968556 27.4571579,90.4919889 27.4733684,90.3874111 C27.5159211,90.1126778 27.5636842,89.8399667 27.6160789,89.5687 C27.6267895,89.5152556 27.6351842,89.4615222 27.6458947,89.4080778 C27.7825263,88.7300556 27.9501316,88.0630111 28.1469737,87.4083889 C28.1602895,87.3644778 28.1747632,87.3208556 28.1880789,87.2772333 C28.3866579,86.6321444 28.6115789,85.9986111 28.8657368,85.3795222 C28.9230526,85.2397 28.9806579,85.1001667 29.0408684,84.9615 C29.1201842,84.7792111 29.2029737,84.5992333 29.2866316,84.4198333 C29.3430789,84.2985 29.3980789,84.1765889 29.4568421,84.0564111 C29.5711842,83.8221222 29.6913158,83.5910111 29.8140526,83.3613444 C29.8875789,83.2235444 29.9631316,83.0871889 30.0395526,82.9511222 C30.1521579,82.7503444 30.2656316,82.5504333 30.3840263,82.3537 C30.4630526,82.2228333 30.5458421,82.0939889 30.6277632,81.9645667 C30.7215526,81.8157889 30.8156316,81.6673 30.9126053,81.5211222 C31.0014737,81.3876556 31.0923684,81.2556333 31.1841316,81.1239 C31.2825526,80.9820556 31.383,80.8416556 31.4848947,80.7024111 C31.5763684,80.5767444 31.6684211,80.4516556 31.7627895,80.3283 C31.8794474,80.1751889 31.9992895,80.0246778 32.12,79.8747444 C32.2030789,79.7713222 32.2847105,79.6670333 32.3698158,79.5650556 C32.7999737,79.0496778 33.2518421,78.5530778 33.726,78.0784333 C33.7532105,78.0515667 33.7807105,78.0255667 33.8079211,77.9987 C34.0308158,77.7779889 34.2574737,77.5616111 34.4893421,77.3504333 C34.5148158,77.3267444 34.5411579,77.3036333 34.5672105,77.2802333 C34.8152895,77.0560556 35.0682895,76.8367889 35.3262105,76.6235889 C35.3285263,76.6218556 35.3305526,76.6201222 35.3328684,76.6183889 C39.1869211,73.4437889 44.1244737,71.5348111 49.5,71.5348111 C57.1730789,71.5348111 63.9525526,75.4241222 67.9637895,81.3313222 C67.9716053,81.3425889 67.9794211,81.3541444 67.9872368,81.3657 C68.1840789,81.6563222 68.3742632,81.9518556 68.5572105,82.2523 C68.5575,82.2525889 68.5577895,82.2531667 68.5583684,82.2537444 C68.9196316,82.8468333 69.2528158,83.4587 69.5585,84.0861667 C69.6001842,84.1725444 69.6395526,84.2603667 69.6806579,84.3473222 C69.7776316,84.5533 69.8722895,84.7607222 69.9628947,84.9701667 C70.0210789,85.1042111 70.0769474,85.2394111 70.1322368,85.3746111 C70.2156053,85.5777 70.2978158,85.7816556 70.3751053,85.9879222 C70.4092632,86.0792111 70.4434211,86.1699222 70.4764211,86.2612111 C70.5534211,86.4747 70.6255,86.6905 70.6958421,86.9071667 C70.7514211,87.0779 70.8055526,87.2495 70.8570789,87.4213889 C70.9016579,87.5701667 70.9433421,87.7198111 70.9850263,87.8697444 C71.0316316,88.0387444 71.0788158,88.2077444 71.1216579,88.3779 C71.1676842,88.5601889 71.2082105,88.7445 71.2493158,88.9285222 C71.2965,89.1391222 71.3416579,89.3503 71.3824737,89.5623444 C71.4287895,89.8012556 71.4733684,90.0407444 71.5118684,90.2822556 C71.533,90.4160111 71.5503684,90.5500556 71.5688947,90.6841 C71.5984211,90.8935444 71.6262105,91.1035667 71.6496579,91.3150333 C71.6641316,91.4476333 71.6774474,91.5805222 71.6898947,91.7137 C71.7110263,91.9416333 71.7283947,92.1710111 71.7425789,92.4009667 C71.7492368,92.5147889 71.7579211,92.6286111 71.7631316,92.7430111 C71.7790526,93.0865 71.7894737,93.4314333 71.7894737,93.7792556 C71.7894737,94.1204333 71.7796316,94.4595889 71.7642895,94.7973 C71.7593684,94.9033222 71.7512632,95.0087667 71.7451842,95.1145 C71.731,95.3499444 71.7139211,95.5848111 71.6925,95.8182333 C71.6817895,95.9349444 71.6696316,96.0510778 71.6571842,96.1672111 C71.6322895,96.3980333 71.6033421,96.6277 71.5715,96.8565 C71.5567368,96.9613667 71.5428421,97.0662333 71.5266316,97.1708111 C71.4840789,97.4455444 71.4363158,97.7182556 71.3839211,97.9895222 C71.3732105,98.0429667 71.3648158,98.0967 71.3541053,98.1498556 C71.2177632,98.8281667 71.0498684,99.4949222 70.8533158,100.149256 C70.8397105,100.193744 70.8249474,100.237944 70.8113421,100.282144 C70.6133421,100.926656 70.3881316,101.5599 70.1342632,102.178411 C70.0769474,102.318522 70.0193421,102.458344 69.9591316,102.597011 C69.8798158,102.779011 69.7970263,102.958989 69.7133684,103.138678 C69.6569211,103.259722 69.6019211,103.381633 69.5431579,103.501522 C69.4288158,103.7361 69.3086842,103.967211 69.1859474,104.196878 C69.1124211,104.334678 69.0368684,104.471033 68.9604474,104.607389 C68.8478421,104.807878 68.7343684,105.007789 68.6159737,105.204233 C68.5369474,105.335678 68.4541579,105.464233 68.3722368,105.593656 C68.2784474,105.742433 68.1843684,105.890633 68.0873947,106.0371 C67.9985263,106.170567 67.9076316,106.302589 67.8158684,106.434322 C67.7174474,106.575878 67.617,106.716567 67.5151053,106.855811 C67.4236316,106.981478 67.3315789,107.106567 67.2372105,107.230211 C67.1205526,107.383033 67.0007105,107.533544 66.88,107.683478 C66.7969211,107.7869 66.7152895,107.891189 66.6301842,107.993167 C66.2000263,108.508544 65.7481579,109.005144 65.274,109.479789 C65.2467895,109.506656 65.2192895,109.532656 65.1920789,109.559522 C64.9691842,109.780233 64.7425263,109.996611 64.5106579,110.207789 C64.4851842,110.231478 64.4588421,110.254589 64.4327895,110.277989 C64.1847105,110.501878 63.9317105,110.721722 63.6737895,110.934344 C63.6714737,110.936367 63.6694474,110.9381 63.6671316,110.939833 C59.8130789,114.114433 54.8755263,116.0237 49.5,116.0237 C44.1244737,116.0237 39.1869211,114.114433 35.3328684,110.939833 C35.3305526,110.9381 35.3285263,110.936367 35.3262105,110.934344 C35.0682895,110.721722 34.8152895,110.501878 34.5672105,110.277989 C34.5411579,110.254589 34.5148158,110.231478 34.4893421,110.207789 C34.2574737,109.996611 34.0308158,109.780233 33.8079211,109.559522 C33.7807105,109.532656 33.7532105,109.506656 33.726,109.479789 C33.2518421,109.005144 32.7999737,108.508544 32.3698158,107.993167 C32.2847105,107.891189 32.2030789,107.7869 32.12,107.683478 C31.9992895,107.533544 31.8794474,107.383033 31.7627895,107.230211 C31.6684211,107.106567 31.5763684,106.981478 31.4848947,106.855811 C31.383,106.716567 31.2825526,106.575878 31.1841316,106.434322 C31.0923684,106.302589 31.0014737,106.170567 30.9126053,106.0371 C30.8156316,105.890633 30.7215526,105.742433 30.6277632,105.593656 C30.5458421,105.464233 30.4630526,105.335678 30.3840263,105.204233 C30.2656316,105.007789 30.1521579,104.807878 30.0395526,104.607389 C29.9631316,104.471033 29.8875789,104.334678 29.8140526,104.196878 C29.6913158,103.967211 29.5711842,103.7361 29.4568421,103.501522 C29.3980789,103.381633 29.3430789,103.259722 29.2866316,103.138678 C29.2029737,102.958989 29.1201842,102.779011 29.0408684,102.597011 C28.9806579,102.458344 28.9230526,102.318522 28.8657368,102.178411 C28.7829474,101.977344 28.7018947,101.775122 28.6251842,101.570878 C28.5907368,101.478722 28.556,101.387433 28.523,101.295278 C28.4462895,101.082367 28.3745,100.867144 28.3041579,100.651344 C28.2485789,100.480322 28.1944474,100.308722 28.1429211,100.136544 C28.0986316,99.9883444 28.0569474,99.8387 28.0152632,99.6890556 C27.9683684,99.5194778 27.9211842,99.3501889 27.8783421,99.1797444 C27.8326053,98.9983222 27.7923684,98.8145889 27.7509737,98.6311444 C27.7035,98.4199667 27.6586316,98.2085 27.6175263,97.9958778 C27.5712105,97.7569667 27.5266316,97.5174778 27.4881316,97.2759667 C27.467,97.1425 27.4496316,97.0081667 27.4311053,96.8741222 C27.4015789,96.6646778 27.3737895,96.4546556 27.3503421,96.2434778 C27.3358684,96.1105889 27.3225526,95.9774111 27.3101053,95.8442333 C27.2889737,95.6163 27.2716053,95.3875 27.2574211,95.1581222 C27.2507632,95.0437222 27.2420789,94.9296111 27.2368684,94.8152111 C27.2209474,94.4717222 27.2105263,94.1265 27.2105263,93.7792556 C27.2105263,93.4377889 27.2203684,93.0986333 27.2357105,92.7612111 Z M24.8296053,84.8237 L16.8392632,84.8237 C17.0835789,83.9362333 17.3600263,83.0559889 17.6752632,82.1945222 C17.9829737,81.3524111 18.3274474,80.5175222 18.7040526,79.6979444 L24.8296053,84.8237 Z M20.0602368,77.0624111 C22.0738158,73.5437444 24.7471053,70.3645222 27.8751579,67.7679889 L34.6798158,73.4617 C33.3601053,74.4239889 32.1393947,75.5157 31.0318684,76.7108333 C30.954,76.7949 30.8758421,76.8789667 30.7988421,76.9641889 C30.7322632,77.0378556 30.6662632,77.1126778 30.6005526,77.1872111 C30.4992368,77.3019 30.3993684,77.4177444 30.2997895,77.5344556 C30.2534737,77.5893444 30.2068684,77.6436556 30.1605526,77.6988333 C29.8505263,78.0694778 29.5506316,78.4493667 29.2620263,78.8379222 C29.2585526,78.8425444 29.2553684,78.8471667 29.2521842,78.8515 C29.1100526,79.0430333 28.9711053,79.2365889 28.8341842,79.4321667 C28.8188421,79.4544111 28.8032105,79.4769444 28.7875789,79.4991889 C28.655,79.6901444 28.5250263,79.8828333 28.3979474,80.0772556 C28.391,80.0879444 28.3840526,80.0980556 28.3771053,80.1084556 C28.1032632,80.5287889 27.8412895,80.9575 27.5920526,81.3945889 L27.5709211,81.4327222 C27.4597632,81.6285889 27.3512105,81.8259 27.2455526,82.0249444 C27.2267368,82.0601889 27.2079211,82.0954333 27.1896842,82.1306778 C27.0883684,82.3227889 26.9896579,82.5160556 26.8932632,82.7110556 C26.8854474,82.7272333 26.8767632,82.7431222 26.8686579,82.7595889 L20.0602368,77.0624111 Z M75.4437895,72.0542333 C76.7571316,73.6148111 77.9303684,75.2955667 78.9400526,77.0621222 L72.1327895,82.7584333 C72.0905263,82.6723444 72.0456579,82.5877 72.0022368,82.5019 C71.9643158,82.4262111 71.9258158,82.3502333 71.8867368,82.2748333 C71.8120526,82.1301 71.7356316,81.9862333 71.6583421,81.8429444 C71.6435789,81.8157889 71.6282368,81.7889222 71.6137632,81.7614778 C70.8119211,80.2939222 69.8662105,78.9061 68.7803947,77.6165 C67.4624211,76.0504333 65.9675789,74.6579889 64.3216316,73.4605444 L64.8936316,72.9818556 L71.1251316,67.7677 C72.6882895,69.0636556 74.1373947,70.5017444 75.4437895,72.0542333 Z M82.1584211,84.8237 L74.1703947,84.8237 L80.2953684,79.6985222 C81.0537895,81.3518333 81.6764474,83.0675444 82.1584211,84.8237 Z M79.0535263,61.1336556 C80.2965263,60.0936556 82.1555263,60.2565889 83.1979211,61.4970778 L87.2288421,66.2955222 C88.2712368,67.5360111 88.1076842,69.3915444 86.8646842,70.4315444 L81.1901316,75.1797222 C80.1546842,73.4273222 78.9730526,71.7561 77.6605789,70.1963889 C76.3556316,68.6459222 74.9183947,67.2017667 73.3755,65.8847222 L79.0535263,61.1336556 Z M13.2402368,99.8459222 L5.83636842,99.8459222 C4.21444737,99.8459222 2.89473684,98.5288778 2.89473684,96.9099444 L2.89473684,90.6482778 C2.89473684,89.0296333 4.21444737,87.7125889 5.83636842,87.7125889 L13.2402368,87.7125889 C12.9070526,89.7099667 12.7368421,91.7431667 12.7368421,93.7792556 C12.7368421,95.8150556 12.9070526,97.8482556 13.2402368,99.8459222 Z M93.1636316,84.8237 L85.1486842,84.8237 C84.5378947,82.3947222 83.6810526,80.0304556 82.5882895,77.7800111 L88.7248421,72.6453 C91.1905789,70.5817667 91.5150789,66.9007444 89.4470789,64.4394111 L85.4161579,59.6412556 C84.4142895,58.4490111 83.0077368,57.7172556 81.4547105,57.5811889 C79.9013947,57.4439667 78.3886053,57.9203444 77.1936579,58.9199 L71.1838947,63.9483 C65.2852895,59.7337 58.3448684,57.2218111 51.5150263,56.8563667 C50.3357105,56.7933889 49.2058947,56.7847222 48.0477105,56.8303667 C47.7075789,56.8439444 47.4343158,56.8364333 47.1897105,56.8084111 C37.2025789,55.6522778 29.6710526,47.2040111 29.6710526,37.1570333 C29.6710526,27.0355222 37.2645263,18.5803222 47.3341579,17.4894778 C47.3723684,17.4851444 47.4114474,17.4834111 47.4496579,17.4831222 L51.6041842,17.4510556 C51.6282105,17.4507667 51.6525263,17.4499 51.6765526,17.4484556 C52.3750526,17.4080111 53.0813684,17.3473444 53.7763947,17.2673222 C58.9550789,16.6730778 61.3125526,12.4896778 61.3111053,8.85401111 C61.3096579,5.20736667 58.9420526,1.0127 53.7477368,0.420766667 C53.0110263,0.3367 52.2598421,0.274011111 51.5153158,0.234144444 L51.5150263,0.234144444 C50.149,0.161055556 48.851,0.161055556 47.4849737,0.234144444 C40.0698158,0.631077778 33.0237368,3.21114444 27.1080526,7.69556667 C17.7910526,14.7591889 12.4473684,25.4971889 12.4473684,37.1570333 C12.4473684,44.3662556 14.6224737,51.5289667 18.4429474,57.5768556 C18.1465263,57.5577889 17.8472105,57.5546111 17.5452895,57.5811889 C15.9922632,57.7172556 14.5857105,58.4490111 13.5841316,59.6412556 L9.55263158,64.4394111 C7.48492105,66.9007444 7.80942105,70.5817667 10.2751579,72.6453 L16.4114211,77.7797222 C15.8686579,78.8965667 15.3803158,80.0434556 14.9556579,81.2036333 C14.5228947,82.3866333 14.1509211,83.5999667 13.8426316,84.8237 L5.83636842,84.8237 C2.61828947,84.8237 0,87.4367 0,90.6482778 L0,96.9099444 C0,100.121811 2.61828947,102.734811 5.83636842,102.734811 L13.8426316,102.734811 C14.1509211,103.958256 14.5228947,105.171589 14.9556579,106.354589 C15.3803158,107.514478 15.8686579,108.661944 16.4114211,109.7785 L10.2751579,114.912922 C7.80942105,116.976456 7.48492105,120.657767 9.55292105,123.118811 L13.5838421,127.917256 C14.5857105,129.109211 15.9922632,129.840967 17.5452895,129.977033 C17.7198421,129.992633 17.8932368,129.999856 18.0663421,129.999856 C19.4341053,129.999856 20.7457105,129.525789 21.8063421,128.638322 L26.4052105,124.790322 C26.8944211,127.702322 30.2873421,129.890367 34.5327632,129.890367 L64.4672368,129.890367 C68.7129474,129.890367 72.1058684,127.702322 72.5947895,124.790322 L77.1939474,128.638322 C78.2542895,129.525789 79.5658947,129.999856 80.9336579,129.999856 C81.1067632,129.999856 81.2801579,129.992633 81.4547105,129.977033 C83.0077368,129.840967 84.4142895,129.109211 85.4158684,127.917256 L89.4473684,123.118811 C91.5150789,120.657767 91.1905789,116.976456 88.7248421,114.912922 L82.5882895,109.778211 C83.6810526,107.527767 84.5378947,105.1635 85.1486842,102.734811 L93.1636316,102.734811 C96.3817105,102.734811 99,100.121811 99,96.9099444 L99,90.6482778 C99,87.4367 96.3817105,84.8237 93.1636316,84.8237 Z" id="Fill-5" fill="#72C9BB" mask="url(#mask-2)"></path>
            </g>
            <path d="M10.7485714,94.1086957 C10.7485714,95.5135435 9.60894,96.6521739 8.20285714,96.6521739 C6.79677429,96.6521739 5.65714286,95.5135435 5.65714286,94.1086957 C5.65714286,92.7038478 6.79677429,91.5652174 8.20285714,91.5652174 C9.60894,91.5652174 10.7485714,92.7038478 10.7485714,94.1086957" id="Fill-8" fill="#72C9BB"></path>
            <path d="M22.6285714,94.1086957 C22.6285714,95.5135435 21.48894,96.6521739 20.0828571,96.6521739 C18.6767743,96.6521739 17.5371429,95.5135435 17.5371429,94.1086957 C17.5371429,92.7038478 18.6767743,91.5652174 20.0828571,91.5652174 C21.48894,91.5652174 22.6285714,92.7038478 22.6285714,94.1086957" id="Fill-10" fill="#72C9BB"></path>
            <path d="M93.3428571,94.1086957 C93.3428571,95.5135435 92.2032257,96.6521739 90.7971429,96.6521739 C89.39106,96.6521739 88.2514286,95.5135435 88.2514286,94.1086957 C88.2514286,92.7038478 89.39106,91.5652174 90.7971429,91.5652174 C92.2032257,91.5652174 93.3428571,92.7038478 93.3428571,94.1086957" id="Fill-12" fill="#72C9BB"></path>
            <path d="M81.4628571,94.1086957 C81.4628571,95.5135435 80.3232257,96.6521739 78.9171429,96.6521739 C77.51106,96.6521739 76.3714286,95.5135435 76.3714286,94.1086957 C76.3714286,92.7038478 77.51106,91.5652174 78.9171429,91.5652174 C80.3232257,91.5652174 81.4628571,92.7038478 81.4628571,94.1086957" id="Fill-14" fill="#72C9BB"></path>
            <path d="M20.3657143,66.9782609 C20.3657143,68.3831087 19.2260829,69.5217391 17.82,69.5217391 C16.4139171,69.5217391 15.2742857,68.3831087 15.2742857,66.9782609 C15.2742857,65.573413 16.4139171,64.4347826 17.82,64.4347826 C19.2260829,64.4347826 20.3657143,65.573413 20.3657143,66.9782609" id="Fill-16" fill="#72C9BB"></path>
            <path d="M83.7257143,66.9782609 C83.7257143,68.3831087 82.5860829,69.5217391 81.18,69.5217391 C79.7739171,69.5217391 78.6342857,68.3831087 78.6342857,66.9782609 C78.6342857,65.573413 79.7739171,64.4347826 81.18,64.4347826 C82.5860829,64.4347826 83.7257143,65.573413 83.7257143,66.9782609" id="Fill-18" fill="#72C9BB"></path>
            <path d="M52.0457143,64.7173913 C52.0457143,66.1222391 50.9060829,67.2608696 49.5,67.2608696 C48.0939171,67.2608696 46.9542857,66.1222391 46.9542857,64.7173913 C46.9542857,63.3125435 48.0939171,62.173913 49.5,62.173913 C50.9060829,62.173913 52.0457143,63.3125435 52.0457143,64.7173913" id="Fill-20" fill="#72C9BB"></path>
            <path d="M52.0457143,8.76086957 C52.0457143,10.1657174 50.9060829,11.3043478 49.5,11.3043478 C48.0939171,11.3043478 46.9542857,10.1657174 46.9542857,8.76086957 C46.9542857,7.35602174 48.0939171,6.2173913 49.5,6.2173913 C50.9060829,6.2173913 52.0457143,7.35602174 52.0457143,8.76086957" id="Fill-22" fill="#72C9BB"></path>
            <path d="M23.76,37.0217391 C23.76,38.426587 22.6203686,39.5652174 21.2142857,39.5652174 C19.8082029,39.5652174 18.6685714,38.426587 18.6685714,37.0217391 C18.6685714,35.6168913 19.8082029,34.4782609 21.2142857,34.4782609 C22.6203686,34.4782609 23.76,35.6168913 23.76,37.0217391" id="Fill-24" fill="#72C9BB"></path>
            <path d="M32.8114286,16.1086957 C32.8114286,17.5135435 31.6717971,18.6521739 30.2657143,18.6521739 C28.8596314,18.6521739 27.72,17.5135435 27.72,16.1086957 C27.72,14.7038478 28.8596314,13.5652174 30.2657143,13.5652174 C31.6717971,13.5652174 32.8114286,14.7038478 32.8114286,16.1086957" id="Fill-26" fill="#72C9BB"></path>
            <path d="M32.8114286,57.3695652 C32.8114286,58.774413 31.6717971,59.9130435 30.2657143,59.9130435 C28.8596314,59.9130435 27.72,58.774413 27.72,57.3695652 C27.72,55.9647174 28.8596314,54.826087 30.2657143,54.826087 C31.6717971,54.826087 32.8114286,55.9647174 32.8114286,57.3695652" id="Fill-28" fill="#72C9BB"></path>
            <path d="M29.4171429,74.8913043 C29.4171429,76.2961522 28.2775114,77.4347826 26.8714286,77.4347826 C25.4653457,77.4347826 24.3257143,76.2961522 24.3257143,74.8913043 C24.3257143,73.4864565 25.4653457,72.3478261 26.8714286,72.3478261 C28.2775114,72.3478261 29.4171429,73.4864565 29.4171429,74.8913043" id="Fill-30" fill="#72C9BB"></path>
            <path d="M74.1085714,74.8913043 C74.1085714,76.2961522 72.96894,77.4347826 71.5628571,77.4347826 C70.1567743,77.4347826 69.0171429,76.2961522 69.0171429,74.8913043 C69.0171429,73.4864565 70.1567743,72.3478261 71.5628571,72.3478261 C72.96894,72.3478261 74.1085714,73.4864565 74.1085714,74.8913043" id="Fill-32" fill="#72C9BB"></path>
            <path d="M29.4171429,112.76087 C29.4171429,114.165717 28.2775114,115.304348 26.8714286,115.304348 C25.4653457,115.304348 24.3257143,114.165717 24.3257143,112.76087 C24.3257143,111.356022 25.4653457,110.217391 26.8714286,110.217391 C28.2775114,110.217391 29.4171429,111.356022 29.4171429,112.76087" id="Fill-34" fill="#72C9BB"></path>
            <path d="M74.1085714,112.76087 C74.1085714,114.165717 72.96894,115.304348 71.5628571,115.304348 C70.1567743,115.304348 69.0171429,114.165717 69.0171429,112.76087 C69.0171429,111.356022 70.1567743,110.217391 71.5628571,110.217391 C72.96894,110.217391 74.1085714,111.356022 74.1085714,112.76087" id="Fill-36" fill="#72C9BB"></path>
            <path d="M52.0457143,123.5 C52.0457143,124.904848 50.9060829,126.043478 49.5,126.043478 C48.0939171,126.043478 46.9542857,124.904848 46.9542857,123.5 C46.9542857,122.095152 48.0939171,120.956522 49.5,120.956522 C50.9060829,120.956522 52.0457143,122.095152 52.0457143,123.5" id="Fill-38" fill="#72C9BB"></path>
            <path d="M20.3657143,120.108696 C20.3657143,121.513543 19.2260829,122.652174 17.82,122.652174 C16.4139171,122.652174 15.2742857,121.513543 15.2742857,120.108696 C15.2742857,118.703848 16.4139171,117.565217 17.82,117.565217 C19.2260829,117.565217 20.3657143,118.703848 20.3657143,120.108696" id="Fill-40" fill="#72C9BB"></path>
            <path d="M83.7257143,120.108696 C83.7257143,121.513543 82.5860829,122.652174 81.18,122.652174 C79.7739171,122.652174 78.6342857,121.513543 78.6342857,120.108696 C78.6342857,118.703848 79.7739171,117.565217 81.18,117.565217 C82.5860829,117.565217 83.7257143,118.703848 83.7257143,120.108696" id="Fill-42" fill="#72C9BB"></path>
        </g>
    </g>
</svg>