<?xml version="1.0" encoding="UTF-8"?>
<svg width="159px" height="40px" viewBox="0 0 159 40" version="1.1" xmlns="http://www.w3.org/2000/svg" xmlns:xlink="http://www.w3.org/1999/xlink">
    <!-- Generator: Sketch 48.2 (47327) - http://www.bohemiancoding.com/sketch -->
    <title>Page 1</title>
    <desc>Created with Sketch.</desc>
    <defs></defs>
    <g id="Desktop-HD" stroke="none" stroke-width="1" fill="none" fill-rule="evenodd" transform="translate(-96.000000, -40.000000)">
        <g id="Page-1" transform="translate(96.000000, 40.000000)" fill="#72C9BB">
            <path d="M13.8877365,25.1412429 C12.8300496,24.2749529 12.2690902,23.0071563 12.2040796,21.3370998 C12.1912332,20.9981168 12.1846154,20.445951 12.1846154,19.6798493 C12.1846154,18.9016949 12.1912332,18.3367232 12.2040796,17.9849341 C12.2690902,16.352919 12.8366675,15.094162 13.9072008,14.2090395 C14.9777341,13.3239171 16.4278201,12.8813559 18.2578481,12.8813559 C19.4120777,12.8813559 20.4475753,13.0636535 21.3620054,13.4274953 C22.2768248,13.7917137 23.000116,14.3193974 23.5322684,15.0094162 C24.0644207,15.7001883 24.3431487,16.5160075 24.3692308,17.4576271 C24.3692308,17.5706215 24.3267987,17.6647834 24.2431025,17.740113 C24.1582384,17.8154426 24.0578029,17.8531073 23.9410174,17.8531073 L21.1774844,17.8531073 C20.9952991,17.8531073 20.862553,17.8188324 20.7780782,17.7495292 C20.6936033,17.6806026 20.6192499,17.5517891 20.5542394,17.3634652 C20.3724434,16.7483992 20.0968297,16.3182674 19.7270091,16.0734463 C19.3571885,15.8286252 18.8674682,15.7062147 18.2578481,15.7062147 C16.7910229,15.7062147 16.0319174,16.4971751 15.9801425,18.079096 C15.9672961,18.4180791 15.9606783,18.9393597 15.9606783,19.6421846 C15.9606783,20.3457627 15.9672961,20.879096 15.9801425,21.2429379 C16.0319174,22.8248588 16.7910229,23.6158192 18.2578481,23.6158192 C18.8542325,23.6158192 19.3443421,23.4903955 19.7270091,23.2391714 C20.1096761,22.9883239 20.3852898,22.5612053 20.5542394,21.9585687 C20.6060143,21.7702448 20.6772534,21.6418079 20.768346,21.5725047 C20.8590494,21.5035782 20.9952991,21.4689266 21.1774844,21.4689266 L23.9410174,21.4689266 C24.0578029,21.4689266 24.1582384,21.5065913 24.2431025,21.5819209 C24.3267987,21.6572505 24.3692308,21.7514124 24.3692308,21.8644068 C24.3431487,22.8060264 24.0644207,23.6222222 23.5322684,24.3126177 C23.000116,25.0033898 22.2768248,25.5306968 21.3620054,25.8945386 C20.4475753,26.2587571 19.4120777,26.440678 18.2578481,26.440678 C16.401738,26.440678 14.9454234,26.007533 13.8877365,25.1412429" id="Fill-1"></path>
            <path d="M34.1651437,21.2300242 L37.5883178,21.2300242 L35.8767308,16.2905569 L34.1651437,21.2300242 Z M29.2323112,26.31477 C29.1488473,26.2310896 29.1076923,26.1373366 29.1076923,26.0338983 C29.1076923,25.9564165 29.1134617,25.8983051 29.126539,25.8595642 L33.6074355,13.4430993 C33.7355161,13.068862 33.9920618,12.8813559 34.3766881,12.8813559 L37.377158,12.8813559 C37.7617843,12.8813559 38.0179454,13.068862 38.1464106,13.4430993 L42.6269225,25.8595642 C42.6396152,25.8983051 42.6461538,25.9564165 42.6461538,26.0338983 C42.6461538,26.1373366 42.6042296,26.2310896 42.5215349,26.31477 C42.4376864,26.3988378 42.3449914,26.440678 42.2422962,26.440678 L39.7422252,26.440678 C39.4345241,26.440678 39.216441,26.2988862 39.0883605,26.0145278 L38.3960331,24.1355932 L33.3574284,24.1355932 L32.6654857,26.0145278 C32.5370205,26.2988862 32.3189374,26.440678 32.0112363,26.440678 L29.5111653,26.440678 C29.4084701,26.440678 29.3157751,26.3988378 29.2323112,26.31477 Z" id="Fill-3"></path>
            <path d="M48.2091234,26.2953995 C48.1107335,26.1985472 48.0615385,26.0854237 48.0615385,25.9564165 L48.0615385,13.3656174 C48.0615385,13.2238257 48.1107335,13.1072155 48.2091234,13.0169492 C48.3075134,12.9266828 48.4220394,12.8813559 48.5534884,12.8813559 L51.3084079,12.8813559 C51.4524508,12.8813559 51.5705188,12.9266828 51.6622182,13.0169492 C51.7543113,13.1072155 51.8003578,13.2238257 51.8003578,13.3656174 L51.8003578,23.3995157 L57.7037567,23.3995157 C57.8477996,23.3995157 57.9694097,23.4479419 58.0677996,23.5447942 C58.1661896,23.6416465 58.2153846,23.7609685 58.2153846,23.9031477 L58.2153846,25.9564165 C58.2153846,26.0985956 58.1661896,26.2148184 58.0677996,26.3050847 C57.9694097,26.3957385 57.8477996,26.440678 57.7037567,26.440678 L48.5534884,26.440678 C48.4220394,26.440678 48.3075134,26.3922518 48.2091234,26.2953995" id="Fill-5"></path>
            <path d="M63.7695628,26.3050847 C63.6770338,26.2148184 63.6307692,26.0985956 63.6307692,25.9564165 L63.6307692,13.3849879 C63.6307692,13.2431961 63.6770338,13.1234867 63.7695628,13.0266344 C63.8620919,12.9297821 63.9760877,12.8813559 64.1119203,12.8813559 L66.2027068,12.8813559 C66.5110136,12.8813559 66.7334535,13.0235351 66.8692861,13.3075061 L70.0522856,19.2736077 L73.2537908,13.3075061 C73.3892533,13.0235351 73.6113231,12.8813559 73.92,12.8813559 L76.0107865,12.8813559 C76.1466191,12.8813559 76.2609851,12.9297821 76.3535141,13.0266344 C76.4460432,13.1234867 76.4923077,13.2431961 76.4923077,13.3849879 L76.4923077,25.9564165 C76.4923077,26.0985956 76.4460432,26.2148184 76.3535141,26.3050847 C76.2609851,26.3957385 76.1466191,26.440678 76.0107865,26.440678 L73.6609186,26.440678 C73.5372998,26.440678 73.429596,26.3922518 73.337067,26.2953995 C73.2445379,26.1985472 73.1982734,26.0858111 73.1982734,25.9564165 L73.1982734,18.905569 L71.1992757,22.7409201 C71.0390154,23.038063 70.8232376,23.1864407 70.5515723,23.1864407 L69.5526287,23.1864407 C69.305391,23.1864407 69.0899834,23.038063 68.9049253,22.7409201 L66.9244334,18.905569 L66.9244334,25.9564165 C66.9244334,26.0985956 66.8781689,26.2148184 66.7856398,26.3050847 C66.6931108,26.3957385 66.579115,26.440678 66.4436525,26.440678 L64.1119203,26.440678 C63.9760877,26.440678 63.8620919,26.3957385 63.7695628,26.3050847" id="Fill-7"></path>
            <path d="M83.4049544,26.2953995 C83.3093438,26.1985472 83.2615385,26.0854237 83.2615385,25.9564165 L83.2615385,13.3849879 C83.2615385,13.2431961 83.3059018,13.1234867 83.3953933,13.0266344 C83.4841199,12.9297821 83.5992351,12.8813559 83.7395915,12.8813559 L92.7652325,12.8813559 C92.9052064,12.8813559 93.0229987,12.9297821 93.1186093,13.0266344 C93.2142199,13.1234867 93.2620252,13.2431961 93.2620252,13.3849879 L93.2620252,15.3026634 C93.2620252,15.4448426 93.2142199,15.5610654 93.1186093,15.6513317 C93.0229987,15.7419855 92.9052064,15.7869249 92.7652325,15.7869249 L86.7226423,15.7869249 L86.7226423,18.2469734 L92.3445458,18.2469734 C92.4845198,18.2469734 92.6026945,18.2953995 92.6983051,18.3922518 C92.7939157,18.4891041 92.841721,18.6088136 92.841721,18.7506053 L92.841721,20.5133172 C92.841721,20.6554964 92.7939157,20.7748184 92.6983051,20.8716707 C92.6026945,20.968523 92.4845198,21.0169492 92.3445458,21.0169492 L86.7226423,21.0169492 L86.7226423,23.535109 L92.9182095,23.535109 C93.0581834,23.535109 93.1763581,23.5835351 93.2719687,23.6803874 C93.3675793,23.7772397 93.4153846,23.8969492 93.4153846,24.0387409 L93.4153846,25.9564165 C93.4153846,26.0985956 93.3675793,26.2148184 93.2719687,26.3050847 C93.1763581,26.3957385 93.0581834,26.440678 92.9182095,26.440678 L83.7395915,26.440678 C83.6118557,26.440678 83.500565,26.3922518 83.4049544,26.2953995" id="Fill-9"></path>
            <path d="M101.210813,25.1412429 C100.153127,24.2749529 99.5921671,23.0071563 99.5271565,21.3370998 C99.5143101,20.9981168 99.5076923,20.445951 99.5076923,19.6798493 C99.5076923,18.9016949 99.5143101,18.3367232 99.5271565,17.9849341 C99.5921671,16.352919 100.159744,15.094162 101.230278,14.2090395 C102.300811,13.3239171 103.750897,12.8813559 105.580925,12.8813559 C106.735155,12.8813559 107.770652,13.0636535 108.685082,13.4274953 C109.599902,13.7917137 110.323193,14.3193974 110.855345,15.0094162 C111.387498,15.7001883 111.666226,16.5160075 111.692308,17.4576271 C111.692308,17.5706215 111.649876,17.6647834 111.566179,17.740113 C111.481315,17.8154426 111.38088,17.8531073 111.264094,17.8531073 L108.500561,17.8531073 C108.318376,17.8531073 108.18563,17.8188324 108.101155,17.7495292 C108.01668,17.6806026 107.942327,17.5517891 107.877316,17.3634652 C107.69552,16.7483992 107.419907,16.3182674 107.050086,16.0734463 C106.680265,15.8286252 106.190545,15.7062147 105.580925,15.7062147 C104.1141,15.7062147 103.354994,16.4971751 103.303219,18.079096 C103.290373,18.4180791 103.283755,18.9393597 103.283755,19.6421846 C103.283755,20.3457627 103.290373,20.879096 103.303219,21.2429379 C103.354994,22.8248588 104.1141,23.6158192 105.580925,23.6158192 C106.177309,23.6158192 106.667419,23.4903955 107.050086,23.2391714 C107.432753,22.9883239 107.708367,22.5612053 107.877316,21.9585687 C107.929091,21.7702448 108.00033,21.6418079 108.091423,21.5725047 C108.182126,21.5035782 108.318376,21.4689266 108.500561,21.4689266 L111.264094,21.4689266 C111.38088,21.4689266 111.481315,21.5065913 111.566179,21.5819209 C111.649876,21.6572505 111.692308,21.7514124 111.692308,21.8644068 C111.666226,22.8060264 111.387498,23.6222222 110.855345,24.3126177 C110.323193,25.0033898 109.599902,25.5306968 108.685082,25.8945386 C107.770652,26.2587571 106.735155,26.440678 105.580925,26.440678 C103.724815,26.440678 102.2685,26.007533 101.210813,25.1412429" id="Fill-11"></path>
            <path d="M120.811298,21.2300242 L124.234472,21.2300242 L122.522885,16.2905569 L120.811298,21.2300242 Z M115.878465,26.31477 C115.795001,26.2310896 115.753846,26.1373366 115.753846,26.0338983 C115.753846,25.9564165 115.759616,25.8983051 115.772693,25.8595642 L120.253589,13.4430993 C120.38167,13.068862 120.638216,12.8813559 121.022842,12.8813559 L124.023312,12.8813559 C124.407938,12.8813559 124.664099,13.068862 124.792564,13.4430993 L129.273076,25.8595642 C129.285769,25.8983051 129.292308,25.9564165 129.292308,26.0338983 C129.292308,26.1373366 129.250383,26.2310896 129.167689,26.31477 C129.08384,26.3988378 128.991145,26.440678 128.88845,26.440678 L126.388379,26.440678 C126.080678,26.440678 125.862595,26.2988862 125.734514,26.0145278 L125.042187,24.1355932 L120.003582,24.1355932 L119.31164,26.0145278 C119.183174,26.2988862 118.965091,26.440678 118.65739,26.440678 L116.157319,26.440678 C116.054624,26.440678 115.961929,26.3988378 115.878465,26.31477 Z" id="Fill-13"></path>
            <path d="M135.73389,25.1412429 C134.676203,24.2749529 134.115244,23.0071563 134.050233,21.3370998 C134.037387,20.9981168 134.030769,20.445951 134.030769,19.6798493 C134.030769,18.9016949 134.037387,18.3367232 134.050233,17.9849341 C134.115244,16.352919 134.682821,15.094162 135.753355,14.2090395 C136.823888,13.3239171 138.273974,12.8813559 140.104002,12.8813559 C141.258232,12.8813559 142.293729,13.0636535 143.208159,13.4274953 C144.122979,13.7917137 144.84627,14.3193974 145.378422,15.0094162 C145.910575,15.7001883 146.189303,16.5160075 146.215385,17.4576271 C146.215385,17.5706215 146.172953,17.6647834 146.089256,17.740113 C146.004392,17.8154426 145.903957,17.8531073 145.787171,17.8531073 L143.023638,17.8531073 C142.841453,17.8531073 142.708707,17.8188324 142.624232,17.7495292 C142.539757,17.6806026 142.465404,17.5517891 142.400393,17.3634652 C142.218597,16.7483992 141.942984,16.3182674 141.573163,16.0734463 C141.203342,15.8286252 140.713622,15.7062147 140.104002,15.7062147 C138.637177,15.7062147 137.878071,16.4971751 137.826296,18.079096 C137.81345,18.4180791 137.806832,18.9393597 137.806832,19.6421846 C137.806832,20.3457627 137.81345,20.879096 137.826296,21.2429379 C137.878071,22.8248588 138.637177,23.6158192 140.104002,23.6158192 C140.700386,23.6158192 141.190496,23.4903955 141.573163,23.2391714 C141.95583,22.9883239 142.231444,22.5612053 142.400393,21.9585687 C142.452168,21.7702448 142.523407,21.6418079 142.6145,21.5725047 C142.705203,21.5035782 142.841453,21.4689266 143.023638,21.4689266 L145.787171,21.4689266 C145.903957,21.4689266 146.004392,21.5065913 146.089256,21.5819209 C146.172953,21.6572505 146.215385,21.7514124 146.215385,21.8644068 C146.189303,22.8060264 145.910575,23.6222222 145.378422,24.3126177 C144.84627,25.0033898 144.122979,25.5306968 143.208159,25.8945386 C142.293729,26.2587571 141.258232,26.440678 140.104002,26.440678 C138.247892,26.440678 136.791577,26.007533 135.73389,25.1412429" id="Fill-15"></path>
            <path d="M3.83535109,3.84615385 L3.83535109,34.3276923 C3.83535109,35.3346154 4.65228087,36.1538462 5.65637579,36.1538462 L154.564649,36.1538462 L154.564649,6.83192308 C154.564649,5.18538462 153.22918,3.84615385 151.587266,3.84615385 L3.83535109,3.84615385 Z M158.4,40 L5.65637579,40 C2.53746828,40 0,37.4553846 0,34.3276923 L0,0 L151.587266,0 C155.343609,0 158.4,3.06461538 158.4,6.83192308 L158.4,40 Z" id="Fill-17"></path>
        </g>
    </g>
</svg>