<?xml version="1.0" encoding="UTF-8"?>
<svg width="105px" height="14px" viewBox="0 0 105 14" version="1.1" xmlns="http://www.w3.org/2000/svg" xmlns:xlink="http://www.w3.org/1999/xlink">
    <!-- Generator: Sketch 48.1 (47250) - http://www.bohemiancoding.com/sketch -->
    <title>CALMECAC</title>
    <desc>Created with Sketch.</desc>
    <defs></defs>
    <g id="Student-profile" stroke="none" stroke-width="1" fill="none" fill-rule="evenodd" transform="translate(-93.000000, -52.000000)">
        <path d="M99.87,65.18 C98.0579909,65.18 96.6180053,64.781004 95.55,63.983 C94.4819947,63.184996 93.9120004,61.9580083 93.84,60.302 C93.8279999,59.9779984 93.822,59.4500037 93.822,58.718 C93.822,57.9739963 93.8279999,57.4340017 93.84,57.098 C93.9120004,55.489992 94.4939945,54.2750041 95.586,53.453 C96.6780055,52.6309959 98.1059912,52.22 99.87,52.22 C100.950005,52.22 101.942995,52.3819984 102.849,52.706 C103.755005,53.0300016 104.492997,53.5369965 105.063,54.227 C105.633003,54.9170034 105.924,55.7839948 105.936,56.828 C105.936,56.9360005 105.897,57.0289996 105.819,57.107 C105.741,57.1850004 105.648001,57.224 105.54,57.224 L101.868,57.224 C101.675999,57.224 101.535,57.1880004 101.445,57.116 C101.355,57.0439996 101.274,56.906001 101.202,56.702 C101.069999,56.3419982 100.896001,56.0900007 100.68,55.946 C100.463999,55.8019993 100.188002,55.73 99.852,55.73 C99.4319979,55.73 99.1080011,55.8409989 98.88,56.063 C98.6519989,56.2850011 98.5320001,56.6599974 98.52,57.188 C98.5079999,57.5120016 98.502,58.0099966 98.502,58.682 C98.502,59.3540034 98.5079999,59.8639983 98.52,60.212 C98.5320001,60.7400026 98.6519989,61.1149989 98.88,61.337 C99.1080011,61.5590011 99.4319979,61.67 99.852,61.67 C100.536003,61.67 100.985999,61.3460032 101.202,60.698 C101.262,60.493999 101.337,60.3560004 101.427,60.284 C101.517,60.2119996 101.663999,60.176 101.868,60.176 L105.54,60.176 C105.648001,60.176 105.741,60.2149996 105.819,60.293 C105.897,60.3710004 105.936,60.4639995 105.936,60.572 C105.924,61.6160052 105.633003,62.4829965 105.063,63.173 C104.492997,63.8630035 103.755005,64.3699984 102.849,64.694 C101.942995,65.0180016 100.950005,65.18 99.87,65.18 Z M106.566,65 C106.457999,65 106.365,64.9610004 106.287,64.883 C106.209,64.8049996 106.17,64.7120005 106.17,64.604 C106.17,64.5559998 106.176,64.5140002 106.188,64.478 L110.202,52.994 C110.25,52.8379992 110.339999,52.7000006 110.472,52.58 C110.604001,52.4599994 110.783999,52.4 111.012,52.4 L114.918,52.4 C115.146001,52.4 115.325999,52.4599994 115.458,52.58 C115.590001,52.7000006 115.68,52.8379992 115.728,52.994 L119.742,64.478 C119.754,64.5140002 119.76,64.5559998 119.76,64.604 C119.76,64.7120005 119.721,64.8049996 119.643,64.883 C119.565,64.9610004 119.472001,65 119.364,65 L116.034,65 C115.673998,65 115.440001,64.8500015 115.332,64.55 L114.9,63.362 L111.03,63.362 L110.598,64.55 C110.489999,64.8500015 110.256002,65 109.896,65 L106.566,65 Z M111.948,59.852 L113.982,59.852 L112.956,56.504 L111.948,59.852 Z M121.236,65 C121.103999,65 120.99,64.9520005 120.894,64.856 C120.798,64.7599995 120.75,64.6460007 120.75,64.514 L120.75,52.886 C120.75,52.7539993 120.798,52.6400005 120.894,52.544 C120.99,52.4479995 121.103999,52.4 121.236,52.4 L124.836,52.4 C124.968001,52.4 125.082,52.4479995 125.178,52.544 C125.274,52.6400005 125.322,52.7539993 125.322,52.886 L125.322,61.31 L130.308,61.31 C130.440001,61.31 130.554,61.3579995 130.65,61.454 C130.746,61.5500005 130.794,61.6639993 130.794,61.796 L130.794,64.514 C130.794,64.6460007 130.746,64.7599995 130.65,64.856 C130.554,64.9520005 130.440001,65 130.308,65 L121.236,65 Z M132.504,65 C132.371999,65 132.258,64.9520005 132.162,64.856 C132.066,64.7599995 132.018,64.6460007 132.018,64.514 L132.018,52.886 C132.018,52.7539993 132.066,52.6400005 132.162,52.544 C132.258,52.4479995 132.371999,52.4 132.504,52.4 L135.348,52.4 C135.684002,52.4 135.941999,52.5619984 136.122,52.886 L138.732,57.206 L141.342,52.886 C141.522001,52.5619984 141.779998,52.4 142.116,52.4 L144.96,52.4 C145.092001,52.4 145.206,52.4479995 145.302,52.544 C145.398,52.6400005 145.446,52.7539993 145.446,52.886 L145.446,64.514 C145.446,64.6460007 145.398,64.7599995 145.302,64.856 C145.206,64.9520005 145.092001,65 144.96,65 L141.702,65 C141.569999,65 141.456,64.9520005 141.36,64.856 C141.264,64.7599995 141.216,64.6460007 141.216,64.514 L141.216,59.582 L140.028,61.526 C139.944,61.6580007 139.851001,61.7659996 139.749,61.85 C139.646999,61.9340004 139.518001,61.976 139.362,61.976 L138.102,61.976 C137.945999,61.976 137.817001,61.9340004 137.715,61.85 C137.612999,61.7659996 137.52,61.6580007 137.436,61.526 L136.248,59.582 L136.248,64.514 C136.248,64.6460007 136.2,64.7599995 136.104,64.856 C136.008,64.9520005 135.894001,65 135.762,65 L132.504,65 Z M147.912,65 C147.779999,65 147.666,64.9520005 147.57,64.856 C147.474,64.7599995 147.426,64.6460007 147.426,64.514 L147.426,52.886 C147.426,52.7539993 147.474,52.6400005 147.57,52.544 C147.666,52.4479995 147.779999,52.4 147.912,52.4 L157.146,52.4 C157.278001,52.4 157.392,52.4479995 157.488,52.544 C157.584,52.6400005 157.632,52.7539993 157.632,52.886 L157.632,55.424 C157.632,55.5560007 157.584,55.6699995 157.488,55.766 C157.392,55.8620005 157.278001,55.91 157.146,55.91 L151.746,55.91 L151.746,57.044 L156.75,57.044 C156.882001,57.044 156.996,57.0919995 157.092,57.188 C157.188,57.2840005 157.236,57.3979993 157.236,57.53 L157.236,59.87 C157.236,60.0020007 157.188,60.1159995 157.092,60.212 C156.996,60.3080005 156.882001,60.356 156.75,60.356 L151.746,60.356 L151.746,61.49 L157.29,61.49 C157.422001,61.49 157.536,61.5379995 157.632,61.634 C157.728,61.7300005 157.776,61.8439993 157.776,61.976 L157.776,64.514 C157.776,64.6460007 157.728,64.7599995 157.632,64.856 C157.536,64.9520005 157.422001,65 157.29,65 L147.912,65 Z M165.048,65.18 C163.235991,65.18 161.796005,64.781004 160.728,63.983 C159.659995,63.184996 159.09,61.9580083 159.018,60.302 C159.006,59.9779984 159,59.4500037 159,58.718 C159,57.9739963 159.006,57.4340017 159.018,57.098 C159.09,55.489992 159.671995,54.2750041 160.764,53.453 C161.856005,52.6309959 163.283991,52.22 165.048,52.22 C166.128005,52.22 167.120995,52.3819984 168.027,52.706 C168.933005,53.0300016 169.670997,53.5369965 170.241,54.227 C170.811003,54.9170034 171.102,55.7839948 171.114,56.828 C171.114,56.9360005 171.075,57.0289996 170.997,57.107 C170.919,57.1850004 170.826001,57.224 170.718,57.224 L167.046,57.224 C166.853999,57.224 166.713,57.1880004 166.623,57.116 C166.533,57.0439996 166.452,56.906001 166.38,56.702 C166.247999,56.3419982 166.074001,56.0900007 165.858,55.946 C165.641999,55.8019993 165.366002,55.73 165.03,55.73 C164.609998,55.73 164.286001,55.8409989 164.058,56.063 C163.829999,56.2850011 163.71,56.6599974 163.698,57.188 C163.686,57.5120016 163.68,58.0099966 163.68,58.682 C163.68,59.3540034 163.686,59.8639983 163.698,60.212 C163.71,60.7400026 163.829999,61.1149989 164.058,61.337 C164.286001,61.5590011 164.609998,61.67 165.03,61.67 C165.714003,61.67 166.163999,61.3460032 166.38,60.698 C166.44,60.493999 166.515,60.3560004 166.605,60.284 C166.695,60.2119996 166.841999,60.176 167.046,60.176 L170.718,60.176 C170.826001,60.176 170.919,60.2149996 170.997,60.293 C171.075,60.3710004 171.114,60.4639995 171.114,60.572 C171.102,61.6160052 170.811003,62.4829965 170.241,63.173 C169.670997,63.8630035 168.933005,64.3699984 168.027,64.694 C167.120995,65.0180016 166.128005,65.18 165.048,65.18 Z M171.744,65 C171.635999,65 171.543,64.9610004 171.465,64.883 C171.387,64.8049996 171.348,64.7120005 171.348,64.604 C171.348,64.5559998 171.354,64.5140002 171.366,64.478 L175.38,52.994 C175.428,52.8379992 175.517999,52.7000006 175.65,52.58 C175.782001,52.4599994 175.961999,52.4 176.19,52.4 L180.096,52.4 C180.324001,52.4 180.503999,52.4599994 180.636,52.58 C180.768001,52.7000006 180.858,52.8379992 180.906,52.994 L184.92,64.478 C184.932,64.5140002 184.938,64.5559998 184.938,64.604 C184.938,64.7120005 184.899,64.8049996 184.821,64.883 C184.743,64.9610004 184.650001,65 184.542,65 L181.212,65 C180.851998,65 180.618001,64.8500015 180.51,64.55 L180.078,63.362 L176.208,63.362 L175.776,64.55 C175.667999,64.8500015 175.434002,65 175.074,65 L171.744,65 Z M177.126,59.852 L179.16,59.852 L178.134,56.504 L177.126,59.852 Z M191.328,65.18 C189.515991,65.18 188.076005,64.781004 187.008,63.983 C185.939995,63.184996 185.37,61.9580083 185.298,60.302 C185.286,59.9779984 185.28,59.4500037 185.28,58.718 C185.28,57.9739963 185.286,57.4340017 185.298,57.098 C185.37,55.489992 185.951995,54.2750041 187.044,53.453 C188.136005,52.6309959 189.563991,52.22 191.328,52.22 C192.408005,52.22 193.400995,52.3819984 194.307,52.706 C195.213005,53.0300016 195.950997,53.5369965 196.521,54.227 C197.091003,54.9170034 197.382,55.7839948 197.394,56.828 C197.394,56.9360005 197.355,57.0289996 197.277,57.107 C197.199,57.1850004 197.106001,57.224 196.998,57.224 L193.326,57.224 C193.133999,57.224 192.993,57.1880004 192.903,57.116 C192.813,57.0439996 192.732,56.906001 192.66,56.702 C192.527999,56.3419982 192.354001,56.0900007 192.138,55.946 C191.921999,55.8019993 191.646002,55.73 191.31,55.73 C190.889998,55.73 190.566001,55.8409989 190.338,56.063 C190.109999,56.2850011 189.99,56.6599974 189.978,57.188 C189.966,57.5120016 189.96,58.0099966 189.96,58.682 C189.96,59.3540034 189.966,59.8639983 189.978,60.212 C189.99,60.7400026 190.109999,61.1149989 190.338,61.337 C190.566001,61.5590011 190.889998,61.67 191.31,61.67 C191.994003,61.67 192.443999,61.3460032 192.66,60.698 C192.72,60.493999 192.795,60.3560004 192.885,60.284 C192.975,60.2119996 193.121999,60.176 193.326,60.176 L196.998,60.176 C197.106001,60.176 197.199,60.2149996 197.277,60.293 C197.355,60.3710004 197.394,60.4639995 197.394,60.572 C197.382,61.6160052 197.091003,62.4829965 196.521,63.173 C195.950997,63.8630035 195.213005,64.3699984 194.307,64.694 C193.400995,65.0180016 192.408005,65.18 191.328,65.18 Z" id="CALMECAC" fill="#72C9BB"></path>
    </g>
</svg>