<?xml version="1.0" encoding="UTF-8"?>
<svg width="100px" height="99px" viewBox="0 0 100 99" version="1.1" xmlns="http://www.w3.org/2000/svg" xmlns:xlink="http://www.w3.org/1999/xlink">
    <!-- Generator: Sketch 48.2 (47327) - http://www.bohemiancoding.com/sketch -->
    <title>noun_1361906_cc</title>
    <desc>Created with Sketch.</desc>
    <defs></defs>
    <g id="Desktop-HD" stroke="none" stroke-width="1" fill="none" fill-rule="evenodd" transform="translate(-937.000000, -1405.000000)">
        <g id="noun_1361906_cc" transform="translate(937.000000, 1405.000000)" fill="#72C9BB" fill-rule="nonzero">
            <g id="Group">
                <path d="M49.5639535,6.46860465 L28.9186047,6.46860465 L28.9186047,23.2406977 C28.9186047,25.4116279 29.2511628,27.5523256 29.9081395,29.6046512 L32.6767442,28.7186047 C32.1127907,26.9534884 31.8267442,25.1104651 31.8267442,23.2406977 L31.8267442,9.3755814 L49.5651163,9.3755814 L49.5651163,6.46860465 L49.5639535,6.46860465 Z" id="Shape"></path>
                <path d="M80.522093,76.3081395 L68.4581395,76.3081395 L68.4581395,66.7151163 L59.2116279,66.7151163 L59.2116279,63.372093 L59.9732558,63.372093 C62.1674419,63.372093 63.9523256,61.5872093 63.9523256,59.3930233 C63.9523256,57.1988372 62.1674419,55.4139535 59.9732558,55.4139535 L59.2116279,55.4139535 L59.2116279,48.1837209 C65.4139535,45.7872093 70.3465116,41.2209302 73.2906977,35.544186 C81.3674419,34.8837209 87.6302326,28.1465116 87.6302326,19.9837209 L87.6302326,6.68604651 L76.3069767,6.68604651 L76.3069767,0.654651163 L22.8186047,0.654651163 L22.8186047,6.68604651 L12.1348837,6.68604651 L12.1348837,19.9837209 C12.1348837,27.905814 18.0337209,34.4860465 25.7639535,35.472093 C28.7860465,41.372093 33.9581395,46.055814 40.4848837,48.4023256 L40.4848837,55.4139535 L39.1523256,55.4139535 C36.9581395,55.4139535 35.1732558,57.1988372 35.1732558,59.3930233 C35.1732558,61.5872093 36.9581395,63.372093 39.1523256,63.372093 L40.4848837,63.372093 L40.4848837,66.7151163 L30.6674419,66.7151163 L30.6674419,76.3081395 L18.6034884,76.3081395 L18.6034884,96.0755814 L0,96.0755814 L0,98.9825581 L90.1162791,98.9825581 L90.1162791,96.0755814 L80.522093,96.0755814 L80.522093,76.3081395 Z M84.7232558,9.59302326 L84.7232558,19.9837209 C84.7232558,26.072093 80.4406977,31.1837209 74.6686047,32.4116279 C75.722093,29.5267442 76.3069767,26.4360465 76.3069767,23.2406977 L76.3069767,9.59302326 L84.7232558,9.59302326 Z M15.0430233,19.9837209 L15.0430233,9.59302326 L22.8197674,9.59302326 L22.8197674,23.2406977 C22.8197674,26.3837209 23.3767442,29.4116279 24.3813953,32.2418605 C18.9732558,30.7569767 15.0430233,25.8186047 15.0430233,19.9837209 Z M42.3755814,45.9744186 C32.4162791,42.8290698 25.7255814,33.6930233 25.7255814,23.2418605 L25.7255814,3.56162791 L73.4,3.56162791 L73.4,23.2406977 C73.4,33.427907 66.9255814,42.4906977 57.2872093,45.7918605 L56.3046512,46.1290698 L56.3046512,55.4151163 L43.3918605,55.4151163 L43.3918605,46.2953488 L42.3755814,45.9744186 Z M38.0802326,59.3930233 C38.0802326,58.8011628 38.5616279,58.3209302 39.1523256,58.3209302 L59.9732558,58.3209302 C60.5651163,58.3209302 61.0453488,58.8011628 61.0453488,59.3930233 C61.0453488,59.9848837 60.5651163,60.4651163 59.9732558,60.4651163 L39.1523256,60.4651163 C38.5616279,60.4651163 38.0802326,59.9848837 38.0802326,59.3930233 Z M43.3918605,63.372093 L56.3046512,63.372093 L56.3046512,66.7151163 L43.3918605,66.7151163 L43.3918605,63.372093 Z M33.5744186,69.622093 L65.5511628,69.622093 L65.5511628,76.3081395 L33.5744186,76.3081395 L33.5744186,69.622093 Z M77.6151163,96.0755814 L21.5104651,96.0755814 L21.5104651,79.2151163 L77.6151163,79.2151163 L77.6151163,96.0755814 Z" id="Shape"></path>
                <path d="M60.3209302,82.8488372 L38.8046512,82.8488372 L38.8046512,93.7023256 L60.3209302,93.7023256 L60.3209302,82.8488372 Z M57.4139535,90.7953488 L41.7116279,90.7953488 L41.7116279,85.755814 L57.4139535,85.755814 L57.4139535,90.7953488 Z" id="Shape"></path>
                <rect id="Rectangle-path" x="53.1593023" y="18.5418605" width="2.90697674" height="3.12209302"></rect>
                <rect id="Rectangle-path" x="53.1593023" y="25.5186047" width="2.90697674" height="3.12209302"></rect>
                <rect id="Rectangle-path" x="56.5395349" y="22.1372093" width="3.12209302" height="2.90697674"></rect>
                <rect id="Rectangle-path" x="49.5627907" y="22.1372093" width="3.12209302" height="2.90697674"></rect>
                <rect id="Rectangle-path" x="73.4" y="42.2174419" width="2.90697674" height="3.12209302"></rect>
                <rect id="Rectangle-path" x="73.4" y="49.194186" width="2.90697674" height="3.12209302"></rect>
                <rect id="Rectangle-path" x="76.7802326" y="45.8127907" width="3.12209302" height="2.90697674"></rect>
                <rect id="Rectangle-path" x="69.8034884" y="45.8127907" width="3.12209302" height="2.90697674"></rect>
                <rect id="Rectangle-path" x="13.5546512" y="61.9186047" width="2.90697674" height="3.12209302"></rect>
                <rect id="Rectangle-path" x="13.5546512" y="68.8953488" width="2.90697674" height="3.12325581"></rect>
                <rect id="Rectangle-path" x="16.9348837" y="65.5139535" width="3.12209302" height="2.90697674"></rect>
                <rect id="Rectangle-path" x="9.95813953" y="65.5139535" width="3.12209302" height="2.90697674"></rect>
                <rect id="Rectangle-path" x="89.7732558" y="76.7813953" width="2.90697674" height="3.12209302"></rect>
                <rect id="Rectangle-path" x="89.7732558" y="83.7581395" width="2.90697674" height="3.12325581"></rect>
                <rect id="Rectangle-path" x="93.1534884" y="80.3767442" width="3.12209302" height="2.90697674"></rect>
                <rect id="Rectangle-path" x="86.1767442" y="80.3767442" width="3.12209302" height="2.90697674"></rect>
                <rect id="Rectangle-path" x="93.1534884" y="96.0755814" width="6.84651163" height="2.90697674"></rect>
                <rect id="Rectangle-path" x="38.5406977" y="71.5116279" width="22.6" height="2.90697674"></rect>
            </g>
        </g>
    </g>
</svg>