<?xml version="1.0" encoding="UTF-8"?>
<svg width="100px" height="100px" viewBox="0 0 100 100" version="1.1" xmlns="http://www.w3.org/2000/svg" xmlns:xlink="http://www.w3.org/1999/xlink">
    <!-- Generator: Sketch 48.2 (47327) - http://www.bohemiancoding.com/sketch -->
    <title>noun_626008_cc</title>
    <desc>Created with Sketch.</desc>
    <defs></defs>
    <g id="Desktop-HD" stroke="none" stroke-width="1" fill="none" fill-rule="evenodd" transform="translate(-403.000000, -1126.000000)">
        <g id="noun_626008_cc" transform="translate(403.000000, 1126.000000)" fill="#FAF8ED" fill-rule="nonzero">
            <path d="M90.625,20.3125 L9.375,20.3125 C8.5109375,20.3125 7.8125,21.0125 7.8125,21.875 L7.8125,84.375 C7.8125,85.2375 8.5109375,85.9375 9.375,85.9375 L54.6875,85.9375 L82.8125,85.9375 L90.625,85.9375 C91.4890625,85.9375 92.1875,85.2375 92.1875,84.375 L92.1875,21.875 C92.1875,21.0125 91.4890625,20.3125 90.625,20.3125 Z M56.25,82.8125 L56.25,68.75 C56.25,67.8875 55.5515625,67.1875 54.6875,67.1875 L39.0625,67.1875 L39.0625,64.0625 L60.9375,64.0625 L61.40625,64.0625 L67.2828125,80.221875 C67.50625,80.8390625 68.0921875,81.25 68.75,81.25 C69.4078125,81.25 69.99375,80.8390625 70.2171875,80.221875 L76.09375,64.0625 L76.5625,64.0625 C79.146875,64.0625 81.25,66.165625 81.25,68.75 L81.25,82.8125 L56.25,82.8125 Z M89.0625,82.8125 L84.375,82.8125 L84.375,68.75 C84.375,64.4421875 80.8703125,60.9375 76.5625,60.9375 L75,60.9375 L73.4375,60.9375 L73.4375,59.3421875 C75.384375,57.875 76.5625,55.5671875 76.5625,53.125 L76.5625,51.5625 L78.125,51.5625 L78.125,48.4375 L75,48.4375 C74.1359375,48.4375 73.4375,49.1375 73.4375,50 L73.4375,53.125 C73.4375,54.79375 72.559375,56.3015625 71.0890625,57.1578125 C70.6078125,57.4375 70.3125,57.9515625 70.3125,58.5078125 L70.3125,62.5 C70.3125,63.3625 71.0109375,64.0625 71.875,64.0625 L72.7703125,64.0625 L68.75,75.115625 L64.7296875,64.0625 L65.625,64.0625 C66.4890625,64.0625 67.1875,63.3625 67.1875,62.5 L67.1875,58.5078125 C67.1875,57.9515625 66.890625,57.4375 66.4109375,57.1578125 C64.9390625,56.3015625 64.0625,54.79375 64.0625,53.125 L64.0625,47.16875 C65.44375,47.9703125 67.0421875,48.4375 68.75,48.4375 L73.4375,48.4375 C74.3015625,48.4375 75,47.7375 75,46.875 C75,41.7046875 70.7953125,37.5 65.625,37.5 L60.9375,37.5 C60.0734375,37.5 59.375,38.2 59.375,39.0625 C59.375,40.9734375 59.9515625,42.75 60.9375,44.234375 L60.9375,53.125 C60.9375,55.5671875 62.115625,57.8765625 64.0625,59.3421875 L64.0625,60.9375 L62.5,60.9375 L60.9375,60.9375 L37.5,60.9375 L29.6875,60.9375 L29.6875,64.0625 L35.9375,64.0625 L35.9375,68.75 C35.9375,69.6125 36.6359375,70.3125 37.5,70.3125 L53.125,70.3125 L53.125,82.8125 L10.9375,82.8125 L10.9375,23.4375 L89.0625,23.4375 L89.0625,82.8125 Z M62.6984375,40.625 L65.625,40.625 C68.53125,40.625 70.9828125,42.6203125 71.6765625,45.3125 L68.75,45.3125 C65.84375,45.3125 63.3921875,43.3171875 62.6984375,40.625 Z" id="Shape"></path>
            <path d="M98.4375,0 L1.5625,0 C0.6984375,0 0,0.7 0,1.5625 L0,14.0625 L0,92.1875 C0,96.4953125 3.5046875,100 7.8125,100 L92.1875,100 C96.4953125,100 100,96.4953125 100,92.1875 L100,14.0625 L100,1.5625 C100,0.7 99.3015625,0 98.4375,0 Z M3.125,3.125 L96.875,3.125 L96.875,12.5 L3.125,12.5 L3.125,3.125 Z M92.1875,96.875 L7.8125,96.875 C5.228125,96.875 3.125,94.771875 3.125,92.1875 L3.125,15.625 L96.875,15.625 L96.875,92.1875 C96.875,94.771875 94.771875,96.875 92.1875,96.875 Z" id="Shape"></path>
            <polygon id="Shape" points="17.1875 87.5 14.0625 87.5 14.0625 89.0625 7.8125 89.0625 7.8125 92.1875 14.0625 92.1875 14.0625 93.75 17.1875 93.75 17.1875 92.1875 92.1875 92.1875 92.1875 89.0625 17.1875 89.0625"></polygon>
            <rect id="Rectangle-path" x="6.25" y="6.25" width="3.125" height="3.125"></rect>
            <rect id="Rectangle-path" x="12.5" y="6.25" width="3.125" height="3.125"></rect>
            <rect id="Rectangle-path" x="18.75" y="6.25" width="3.125" height="3.125"></rect>
            <path d="M15.625,53.125 L53.125,53.125 C53.9890625,53.125 54.6875,52.425 54.6875,51.5625 L54.6875,29.6875 C54.6875,28.825 53.9890625,28.125 53.125,28.125 L15.625,28.125 C14.7609375,28.125 14.0625,28.825 14.0625,29.6875 L14.0625,51.5625 C14.0625,52.425 14.7609375,53.125 15.625,53.125 Z M17.1875,31.25 L51.5625,31.25 L51.5625,50 L17.1875,50 L17.1875,31.25 Z" id="Shape"></path>
            <rect id="Rectangle-path" x="20.3125" y="34.375" width="10.9375" height="3.125"></rect>
            <rect id="Rectangle-path" x="34.375" y="34.375" width="14.0625" height="3.125"></rect>
            <rect id="Rectangle-path" x="20.3125" y="40.625" width="4.6875" height="3.125"></rect>
            <rect id="Rectangle-path" x="28.125" y="40.625" width="14.0625" height="3.125"></rect>
        </g>
    </g>
</svg>