<?xml version="1.0" encoding="UTF-8"?>
<svg width="218px" height="125px" viewBox="0 0 218 125" version="1.1" xmlns="http://www.w3.org/2000/svg" xmlns:xlink="http://www.w3.org/1999/xlink">
    <!-- Generator: Sketch 48.2 (47327) - http://www.bohemiancoding.com/sketch -->
    <title>Page 1</title>
    <desc>Created with Sketch.</desc>
    <defs>
        <polygon id="path-1" points="0 0.196403571 19.7032653 0.196403571 19.7032653 23 0 23"></polygon>
        <polygon id="path-3" points="0.131959184 0.196403571 19.8352245 0.196403571 19.8352245 23 0.131959184 23"></polygon>
        <polygon id="path-5" points="0.108816327 0.196403571 19.8120816 0.196403571 19.8120816 23 0.108816327 23"></polygon>
    </defs>
    <g id="Desktop-HD" stroke="none" stroke-width="1" fill="none" fill-rule="evenodd" transform="translate(-611.000000, -2144.000000)">
        <g id="Page-1" transform="translate(611.000000, 2144.000000)">
            <g id="Group-3" transform="translate(0.000000, 102.000000)">
                <mask id="mask-2" fill="white">
                    <use xlink:href="#path-1"></use>
                </mask>
                <g id="Clip-2"></g>
                <path d="M2.75428571,20.8146714 C1.04367347,19.3578679 0.136326531,17.2254393 0.0314285714,14.416975 C0.0102040816,13.8469036 0,12.9178679 0,11.6298679 C0,10.3209214 0.0102040816,9.37093929 0.0314285714,8.77951071 C0.136326531,6.03511786 1.05469388,3.91788571 2.78571429,2.42945714 C4.51673469,0.940617857 6.86163265,0.196403571 9.82040816,0.196403571 C11.6877551,0.196403571 13.3612245,0.502796429 14.8404082,1.11517143 C16.3195918,1.72754643 17.4893878,2.61468929 18.3497959,3.77536786 C19.2097959,4.93686786 19.6612245,6.30906429 19.7032653,7.89277857 C19.7032653,8.08252857 19.6346939,8.24106429 19.4987755,8.367975 C19.3620408,8.494475 19.1995918,8.557725 19.0110204,8.557725 L14.5416327,8.557725 C14.2473469,8.557725 14.0326531,8.49981429 13.8963265,8.38358214 C13.7595918,8.26776071 13.6391837,8.05090357 13.5342857,7.73424286 C13.24,6.70006429 12.7946939,5.97679643 12.1967347,5.56485 C11.5987755,5.15331429 10.8065306,4.94713571 9.82040816,4.94713571 C7.44897959,4.94713571 6.22122449,6.27743929 6.13755102,8.93804643 C6.11632653,9.50811786 6.10612245,10.3841714 6.10612245,11.5666179 C6.10612245,12.749475 6.11632653,13.646475 6.13755102,14.25885 C6.22122449,16.9190464 7.44897959,18.24935 9.82040816,18.24935 C10.7853061,18.24935 11.577551,18.0386536 12.1967347,17.6160286 C12.815102,17.1938143 13.2612245,16.4758857 13.5342857,15.4622429 C13.6179592,15.1455821 13.7334694,14.9291357 13.8804082,14.8129036 C14.0269388,14.6970821 14.2473469,14.6387607 14.5416327,14.6387607 L19.0110204,14.6387607 C19.1995918,14.6387607 19.3620408,14.7020107 19.4987755,14.8289214 C19.6346939,14.9554214 19.7032653,15.1139571 19.7032653,15.3041179 C19.6612245,16.8874214 19.2097959,18.2600286 18.3497959,19.4211179 C17.4893878,20.5826179 16.3195918,21.46935 14.8404082,22.0813143 C13.3612245,22.6936893 11.6877551,23.0000821 9.82040816,23.0000821 C6.81918367,23.0000821 4.46408163,22.271475 2.75428571,20.8146714" id="Fill-1" fill="#72C9BB" mask="url(#mask-2)"></path>
            </g>
            <path d="M35.2185422,116.545609 L40.7814578,116.545609 L37.9997974,108.531382 L35.2185422,116.545609 Z M27.203032,124.795406 C27.0672721,124.659689 27,124.50767 27,124.340163 C27,124.214227 27.0101313,124.119674 27.0312045,124.05691 L34.3123952,103.9113 C34.5202903,103.304039 34.9377015,103 35.5626025,103 L40.4373975,103 C41.0627038,103 41.4788992,103.304039 41.6876048,103.9113 L48.9687955,124.05691 C48.9890582,124.119674 49,124.214227 49,124.340163 C49,124.50767 48.9323227,124.659689 48.796968,124.795406 C48.661208,124.931938 48.5104537,125 48.3438945,125 L44.2812275,125 C43.7811447,125 43.426953,124.76973 43.2186527,124.308373 L42.0936688,121.259837 L33.9063312,121.259837 L32.780942,124.308373 C32.5726417,124.76973 32.2188553,125 31.7183672,125 L27.6561055,125 C27.489141,125 27.3383867,124.931938 27.203032,124.795406 Z" id="Fill-4" fill="#72C9BB"></path>
            <path d="M58.2324202,124.764427 C58.0772053,124.607106 58,124.424109 58,124.214213 L58,103.785787 C58,103.555105 58.0772053,103.366809 58.2324202,103.220086 C58.3876351,103.073769 58.568183,103 58.7752702,103 L63.1164614,103 C63.3432521,103 63.5294295,103.073769 63.6741895,103.220086 C63.8189495,103.366809 63.8913295,103.555105 63.8913295,103.785787 L63.8913295,120.0656 L73.1937673,120.0656 C73.42096,120.0656 73.6123649,120.14426 73.7675798,120.30158 C73.9227947,120.458493 74,120.652494 74,120.882769 L74,124.214213 C74,124.445303 73.9227947,124.633598 73.7675798,124.780322 C73.6123649,124.926638 73.42096,125 73.1937673,125 L58.7752702,125 C58.568183,125 58.3876351,124.92134 58.2324202,124.764427" id="Fill-6" fill="#72C9BB"></path>
            <path d="M83.2372654,124.779918 C83.0788148,124.633605 83,124.444906 83,124.214227 L83,103.817155 C83,103.586884 83.0788148,103.392886 83.2372654,103.235976 C83.3957159,103.078659 83.59029,103 83.8230399,103 L87.4000821,103 C87.927156,103 88.3068627,103.230678 88.5392021,103.691627 L93.9839907,113.371545 L99.4603874,103.691627 C99.6919058,103.230678 100.072023,103 100.599918,103 L104.17655,103 C104.408479,103 104.603874,103.078659 104.762324,103.235976 C104.920364,103.392886 105,103.586884 105,103.817155 L105,124.214227 C105,124.444906 104.920364,124.633605 104.762324,124.779918 C104.603874,124.926639 104.408479,125 104.17655,125 L100.156585,125 C99.9451804,125 99.7608688,124.921341 99.6024182,124.764024 C99.4439676,124.607114 99.3651528,124.423712 99.3651528,124.214227 L99.3651528,112.774064 L95.9465612,118.997073 C95.6719409,119.479215 95.3024965,119.719674 94.8386387,119.719674 L93.1293428,119.719674 C92.7065343,119.719674 92.337911,119.479215 92.0210098,118.997073 L88.6340262,112.774064 L88.6340262,124.214227 C88.6340262,124.444906 88.5552114,124.633605 88.3967608,124.779918 C88.2387208,124.926639 88.0433257,125 87.8113968,125 L83.8230399,125 C83.59029,125 83.3957159,124.926639 83.2372654,124.779918" id="Fill-8" fill="#72C9BB"></path>
            <path d="M116.239975,124.764427 C116.079715,124.607106 116,124.424109 116,124.214213 L116,103.81717 C116,103.586895 116.074317,103.392486 116.223783,103.235573 C116.372833,103.07866 116.565061,103 116.800469,103 L131.911811,103 C132.146388,103 132.344014,103.07866 132.504274,103.235573 C132.664119,103.392486 132.744249,103.586895 132.744249,103.81717 L132.744249,106.928528 C132.744249,107.15921 132.664119,107.347913 132.504274,107.494229 C132.344014,107.640953 132.146388,107.714315 131.911811,107.714315 L121.794681,107.714315 L121.794681,111.705608 L131.207249,111.705608 C131.441826,111.705608 131.639452,111.784268 131.799712,111.941588 C131.959556,112.098501 132.040102,112.292503 132.040102,112.522777 L132.040102,115.382667 C132.040102,115.613757 131.959556,115.806943 131.799712,115.964264 C131.639452,116.121177 131.441826,116.199837 131.207249,116.199837 L121.794681,116.199837 L121.794681,120.285685 L132.167562,120.285685 C132.402555,120.285685 132.599766,120.364345 132.760025,120.521258 C132.920285,120.678579 133,120.87258 133,121.102855 L133,124.214213 C133,124.445303 132.920285,124.633598 132.760025,124.780322 C132.599766,124.926638 132.402555,125 132.167562,125 L116.800469,125 C116.586651,125 116.400234,124.92134 116.239975,124.764427" id="Fill-10" fill="#72C9BB"></path>
            <g id="Group-14" transform="translate(141.000000, 102.000000)">
                <mask id="mask-4" fill="white">
                    <use xlink:href="#path-3"></use>
                </mask>
                <g id="Clip-13"></g>
                <path d="M2.8862449,20.8146714 C1.17563265,19.3578679 0.268285714,17.2254393 0.163387755,14.416975 C0.142163265,13.8469036 0.131959184,12.9178679 0.131959184,11.6298679 C0.131959184,10.3209214 0.142163265,9.37093929 0.163387755,8.77951071 C0.268285714,6.03511786 1.18665306,3.91788571 2.91767347,2.42945714 C4.64869388,0.940617857 6.99359184,0.196403571 9.95236735,0.196403571 C11.8197143,0.196403571 13.4931837,0.502796429 14.9723673,1.11517143 C16.451551,1.72754643 17.6213469,2.61468929 18.4817551,3.77536786 C19.3417551,4.93686786 19.7931837,6.30906429 19.8352245,7.89277857 C19.8352245,8.08252857 19.7666531,8.24106429 19.6307347,8.367975 C19.494,8.494475 19.331551,8.557725 19.1429796,8.557725 L14.6735918,8.557725 C14.3793061,8.557725 14.1646122,8.49981429 14.0282857,8.38358214 C13.891551,8.26776071 13.7711429,8.05090357 13.6662449,7.73424286 C13.3719592,6.70006429 12.9266531,5.97679643 12.3286939,5.56485 C11.7307347,5.15331429 10.9384898,4.94713571 9.95236735,4.94713571 C7.58093878,4.94713571 6.35318367,6.27743929 6.2695102,8.93804643 C6.24828571,9.50811786 6.23808163,10.3841714 6.23808163,11.5666179 C6.23808163,12.749475 6.24828571,13.646475 6.2695102,14.25885 C6.35318367,16.9190464 7.58093878,18.24935 9.95236735,18.24935 C10.9172653,18.24935 11.7095102,18.0386536 12.3286939,17.6160286 C12.9470612,17.1938143 13.3931837,16.4758857 13.6662449,15.4622429 C13.7499184,15.1455821 13.8654286,14.9291357 14.0123673,14.8129036 C14.158898,14.6970821 14.3793061,14.6387607 14.6735918,14.6387607 L19.1429796,14.6387607 C19.331551,14.6387607 19.494,14.7020107 19.6307347,14.8289214 C19.7666531,14.9554214 19.8352245,15.1139571 19.8352245,15.3041179 C19.7931837,16.8874214 19.3417551,18.2600286 18.4817551,19.4211179 C17.6213469,20.5826179 16.451551,21.46935 14.9723673,22.0813143 C13.4931837,22.6936893 11.8197143,23.0000821 9.95236735,23.0000821 C6.95114286,23.0000821 4.59604082,22.271475 2.8862449,20.8146714" id="Fill-12" fill="#72C9BB" mask="url(#mask-4)"></path>
            </g>
            <path d="M176.218542,116.545609 L181.781458,116.545609 L178.999797,108.531382 L176.218542,116.545609 Z M168.203032,124.795406 C168.067272,124.659689 168,124.50767 168,124.340163 C168,124.214227 168.010131,124.119674 168.031205,124.05691 L175.312395,103.9113 C175.52029,103.304039 175.937701,103 176.562602,103 L181.437398,103 C182.062704,103 182.478899,103.304039 182.687605,103.9113 L189.968795,124.05691 C189.989058,124.119674 190,124.214227 190,124.340163 C190,124.50767 189.932323,124.659689 189.796968,124.795406 C189.661208,124.931938 189.510454,125 189.343894,125 L185.281228,125 C184.781145,125 184.426953,124.76973 184.218653,124.308373 L183.093669,121.259837 L174.906331,121.259837 L173.780942,124.308373 C173.572642,124.76973 173.218855,125 172.718367,125 L168.656106,125 C168.489141,125 168.338387,124.931938 168.203032,124.795406 Z" id="Fill-15" fill="#72C9BB"></path>
            <g id="Group-19" transform="translate(198.000000, 102.000000)">
                <mask id="mask-6" fill="white">
                    <use xlink:href="#path-5"></use>
                </mask>
                <g id="Clip-18"></g>
                <path d="M2.86310204,20.8146714 C1.1524898,19.3578679 0.245142857,17.2254393 0.140244898,14.416975 C0.119020408,13.8469036 0.108816327,12.9178679 0.108816327,11.6298679 C0.108816327,10.3209214 0.119020408,9.37093929 0.140244898,8.77951071 C0.245142857,6.03511786 1.1635102,3.91788571 2.89453061,2.42945714 C4.62555102,0.940617857 6.97044898,0.196403571 9.92922449,0.196403571 C11.7965714,0.196403571 13.4700408,0.502796429 14.9492245,1.11517143 C16.4284082,1.72754643 17.5982041,2.61468929 18.4586122,3.77536786 C19.3186122,4.93686786 19.7700408,6.30906429 19.8120816,7.89277857 C19.8120816,8.08252857 19.7435102,8.24106429 19.6075918,8.367975 C19.4708571,8.494475 19.3084082,8.557725 19.1198367,8.557725 L14.650449,8.557725 C14.3561633,8.557725 14.1414694,8.49981429 14.0051429,8.38358214 C13.8684082,8.26776071 13.748,8.05090357 13.643102,7.73424286 C13.3488163,6.70006429 12.9035102,5.97679643 12.305551,5.56485 C11.7075918,5.15331429 10.9153469,4.94713571 9.92922449,4.94713571 C7.55779592,4.94713571 6.33004082,6.27743929 6.24636735,8.93804643 C6.22514286,9.50811786 6.21493878,10.3841714 6.21493878,11.5666179 C6.21493878,12.749475 6.22514286,13.646475 6.24636735,14.25885 C6.33004082,16.9190464 7.55779592,18.24935 9.92922449,18.24935 C10.8941224,18.24935 11.6863673,18.0386536 12.305551,17.6160286 C12.9239184,17.1938143 13.3700408,16.4758857 13.643102,15.4622429 C13.7267755,15.1455821 13.8422857,14.9291357 13.9892245,14.8129036 C14.1357551,14.6970821 14.3561633,14.6387607 14.650449,14.6387607 L19.1198367,14.6387607 C19.3084082,14.6387607 19.4708571,14.7020107 19.6075918,14.8289214 C19.7435102,14.9554214 19.8120816,15.1139571 19.8120816,15.3041179 C19.7700408,16.8874214 19.3186122,18.2600286 18.4586122,19.4211179 C17.5982041,20.5826179 16.4284082,21.46935 14.9492245,22.0813143 C13.4700408,22.6936893 11.7965714,23.0000821 9.92922449,23.0000821 C6.928,23.0000821 4.57289796,22.271475 2.86310204,20.8146714" id="Fill-17" fill="#72C9BB" mask="url(#mask-6)"></path>
            </g>
            <path d="M109,17.0740741 C99.1154815,17.0740741 91.0740741,25.1154815 91.0740741,35 C91.0740741,44.8845185 99.1154815,52.9259259 109,52.9259259 C118.884519,52.9259259 126.925926,44.8845185 126.925926,35 C126.925926,25.1154815 118.884519,17.0740741 109,17.0740741 M109,57 C96.8694444,57 87,47.130963 87,35 C87,22.869037 96.8694444,13 109,13 C121.130556,13 131,22.869037 131,35 C131,47.130963 121.130556,57 109,57" id="Fill-20" fill="#72C9BB"></path>
            <path d="M109,29.9583333 C105.783333,29.9583333 103.166667,32.4441667 103.166667,35.5 C103.166667,38.5558333 105.783333,41.0416667 109,41.0416667 C112.216667,41.0416667 114.833333,38.5558333 114.833333,35.5 C114.833333,32.4441667 112.216667,29.9583333 109,29.9583333 M109,45 C103.48625,45 99,40.7384583 99,35.5 C99,30.2615417 103.48625,26 109,26 C114.51375,26 119,30.2615417 119,35.5 C119,40.7384583 114.51375,45 109,45" id="Fill-22" fill="#72C9BB"></path>
            <path d="M108.5,4.08045977 C91.1751839,4.08045977 77.0804598,18.1751839 77.0804598,35.5 C77.0804598,52.8248161 91.1751839,66.9195402 108.5,66.9195402 C125.824816,66.9195402 139.91954,52.8248161 139.91954,35.5 C139.91954,18.1751839 125.824816,4.08045977 108.5,4.08045977 M108.5,71 C88.9252184,71 73,55.0747816 73,35.5 C73,15.9252184 88.9252184,0 108.5,0 C128.074782,0 144,15.9252184 144,35.5 C144,55.0747816 128.074782,71 108.5,71" id="Fill-24" fill="#72C9BB"></path>
            <path d="M143.066438,70 L140.26363,67.1371462 C148.499604,58.7251091 153.035633,47.5413146 153.035633,35.6453492 C153.035633,23.6068688 148.406441,12.328334 140,3.88714618 L142.779418,1 C151.949792,10.2084213 157,22.5124982 157,35.6453492 C157,48.6227292 152.051677,60.8231587 143.066438,70" id="Fill-26" fill="#72C9BB"></path>
            <path d="M154.971925,37 C153.851616,37 152.943849,36.0995796 152.943849,34.9892353 C152.943849,23.0316199 148.207076,11.8288455 139.606009,3.44435889 C138.807352,2.66579081 138.796806,1.39257461 139.582077,0.600735472 C140.367348,-0.191103662 141.651931,-0.201157486 142.450182,0.576606295 C151.83287,9.72317271 157,21.9446005 157,34.9892353 C157,36.0995796 156.092233,37 154.971925,37" id="Fill-28" fill="#72C9BB"></path>
            <path d="M75.9718593,70 C75.458339,70 74.9448187,69.8077713 74.5497407,69.4229118 C65.1672469,60.2763654 60,48.0553666 60,35.0107603 C60,33.9004185 60.907787,33 62.0281211,33 C63.1484552,33 64.0562422,33.9004185 64.0562422,35.0107603 C64.0562422,46.9683495 68.7931218,58.1706972 77.3939778,66.5555676 C78.1926519,67.334134 78.2031981,68.6073474 77.4179096,69.3987827 C77.0212091,69.7993261 76.4963314,70 75.9718593,70" id="Fill-30" fill="#72C9BB"></path>
            <path d="M64.0267185,35 L60,35 C60,22.1565885 65.02615,10.081706 74.1527074,1 L77,3.83329994 C68.6340897,12.1584976 64.0267185,23.2268394 64.0267185,35" id="Fill-32" fill="#72C9BB"></path>
        </g>
    </g>
</svg>