<svg xmlns="http://www.w3.org/2000/svg" viewBox="0 0 152.44 152.44"><defs><style>.cls-1{fill:#ff5f58;}</style></defs><title>badge-3_alt</title><g id="Layer_2" data-name="Layer 2"><g id="Layer_1-2" data-name="Layer 1"><path class="cls-1" d="M76.22,152.44a75.92,75.92,0,1,1,29.67-6A75.84,75.84,0,0,1,76.22,152.44Zm0-150A73.78,73.78,0,0,0,47.51,144.18,73.78,73.78,0,0,0,104.93,8.25,73.38,73.38,0,0,0,76.22,2.46Z"/><path class="cls-1" d="M18.6,66.1a.37.37,0,0,1-.25.05L11,64.76l-.46,2.45a.34.34,0,0,1-.14.21.33.33,0,0,1-.26,0l-1-.19A.38.38,0,0,1,9,67.15a.3.3,0,0,1,0-.25l1.28-6.79a.34.34,0,0,1,.14-.22.34.34,0,0,1,.26,0l1,.19a.33.33,0,0,1,.22.14.36.36,0,0,1,0,.25l-.47,2.45,7.32,1.39a.33.33,0,0,1,.21.13.3.3,0,0,1,0,.25l-.24,1.25A.32.32,0,0,1,18.6,66.1Z"/><path class="cls-1" d="M21,56.66a.36.36,0,0,1-.25,0l-8.09-3.47a.37.37,0,0,1-.19-.18.31.31,0,0,1,0-.25l.49-1.15a.32.32,0,0,1,.18-.18.33.33,0,0,1,.26,0l3.2,1.37,1.55-3.62-3.19-1.37a.35.35,0,0,1-.19-.19.31.31,0,0,1,0-.25l.49-1.15a.32.32,0,0,1,.18-.18.34.34,0,0,1,.26,0l8.09,3.47a.39.39,0,0,1,.18.18.31.31,0,0,1,0,.25l-.49,1.16a.33.33,0,0,1-.18.17.36.36,0,0,1-.25,0l-3.32-1.43-1.56,3.63,3.32,1.42a.35.35,0,0,1,.18.18.34.34,0,0,1,0,.26l-.49,1.15A.33.33,0,0,1,21,56.66Z"/><path class="cls-1" d="M26.85,44.7a.37.37,0,0,1-.25-.06l-7.15-5.12a.37.37,0,0,1-.15-.22.28.28,0,0,1,.06-.24l3.47-4.85a.37.37,0,0,1,.22-.15.33.33,0,0,1,.25.07l.74.53a.3.3,0,0,1,.14.21.33.33,0,0,1-.07.25l-2.58,3.61,1.92,1.37,2.41-3.36a.32.32,0,0,1,.22-.14.29.29,0,0,1,.25.06l.69.5a.32.32,0,0,1,.14.21.33.33,0,0,1-.07.25L24.68,41l2,1.42,2.65-3.69a.35.35,0,0,1,.21-.15.3.3,0,0,1,.25.06l.75.54a.28.28,0,0,1,.13.21.33.33,0,0,1-.07.25l-3.53,4.94A.36.36,0,0,1,26.85,44.7Z"/><path class="cls-1" d="M39.83,30.32a.3.3,0,0,1-.21-.13L34.52,23a.33.33,0,0,1-.07-.25.32.32,0,0,1,.14-.21l1-.71a.34.34,0,0,1,.25-.06.32.32,0,0,1,.22.14l1.83,2.58.58-4.4a.63.63,0,0,1,.28-.5l1.13-.8a.26.26,0,0,1,.21-.05.27.27,0,0,1,.18.11.21.21,0,0,1,0,.17l-.63,5.46,5.81,1.37a.3.3,0,0,1,.15.11.3.3,0,0,1,0,.21.27.27,0,0,1-.11.18l-1.16.82a.54.54,0,0,1-.39.14l-.19,0-4.7-1,2,2.85a.34.34,0,0,1,.06.24.37.37,0,0,1-.15.22l-1,.7A.26.26,0,0,1,39.83,30.32Z"/><path class="cls-1" d="M50.15,23.72a.28.28,0,0,1-.17-.18l-3.43-8.11a.39.39,0,0,1,0-.26.28.28,0,0,1,.18-.17l1-.41a.43.43,0,0,1,.45.05l5.9,4-2.29-5.43a.34.34,0,0,1,0-.26.32.32,0,0,1,.18-.18L53,12.35a.34.34,0,0,1,.26,0,.37.37,0,0,1,.18.19l3.42,8.1a.34.34,0,0,1,0,.26.39.39,0,0,1-.18.18l-1,.41a.47.47,0,0,1-.47-.05L49.4,17.52l2.25,5.32a.36.36,0,0,1,0,.25.26.26,0,0,1-.18.17l-1.07.46A.36.36,0,0,1,50.15,23.72Z"/><path class="cls-1" d="M63,18.44a3.72,3.72,0,0,1-1.55-2.54c0-.26-.13-.63-.21-1.13s-.16-.89-.19-1.15a3.69,3.69,0,0,1,.61-2.91,4.71,4.71,0,0,1,5.61-1,3.67,3.67,0,0,1,1.58,2.52c.11.51.18.89.23,1.14s.1.62.17,1.14a3.67,3.67,0,0,1-.59,2.92,4.88,4.88,0,0,1-5.66,1Zm4-1.91a2.49,2.49,0,0,0,.27-1.74c-.08-.53-.13-.9-.16-1.08s-.11-.56-.22-1.08a2.48,2.48,0,0,0-.86-1.53,2.13,2.13,0,0,0-2.81.5A2.38,2.38,0,0,0,63,13.33c0,.26.09.62.17,1.08s.15.82.21,1.08A2.39,2.39,0,0,0,64.2,17,2.17,2.17,0,0,0,67,16.53Z"/><path class="cls-1" d="M76.12,17.32,75,8.58V8.47a.25.25,0,0,1,.09-.2.27.27,0,0,1,.2-.07l1.22.07a.39.39,0,0,1,.25.08.3.3,0,0,1,.1.21l.79,6.14,1.41-3.85a.46.46,0,0,1,.47-.31l.74,0a.38.38,0,0,1,.28.11.55.55,0,0,1,.13.25l1,4,1.44-6c0-.18.17-.27.4-.25l1.21.06a.3.3,0,0,1,.19.1A.27.27,0,0,1,85,9c0,.05,0,.08,0,.11L82.9,17.7a.56.56,0,0,1-.17.29.62.62,0,0,1-.34.09L81.47,18a.41.41,0,0,1-.3-.11.51.51,0,0,1-.15-.25L79.75,13.1,78,17.49a.45.45,0,0,1-.49.32l-.92,0A.47.47,0,0,1,76.12,17.32Z"/><path class="cls-1" d="M90.18,15.31a.36.36,0,0,1,0-.25l.24-.89a.28.28,0,0,1,.15-.2.34.34,0,0,1,.24,0l4,1.08a.33.33,0,0,1,.2.15.36.36,0,0,1,0,.25l-.24.89a.29.29,0,0,1-.15.19.28.28,0,0,1-.25,0l-4-1.07A.38.38,0,0,1,90.18,15.31Z"/><path class="cls-1" d="M99,22.32a.31.31,0,0,1,0-.25L102.54,14a.31.31,0,0,1,.19-.18.33.33,0,0,1,.24,0l1.19.52a.32.32,0,0,1,.18.18.31.31,0,0,1,0,.25l-3.56,8.07a.31.31,0,0,1-.17.17.34.34,0,0,1-.26,0l-1.19-.52A.33.33,0,0,1,99,22.32Z"/><path class="cls-1" d="M107.7,26.91a.29.29,0,0,1,0-.24l4.1-6.22-2.08-1.38a.31.31,0,0,1-.14-.21.33.33,0,0,1,.05-.25l.56-.85a.38.38,0,0,1,.21-.15.29.29,0,0,1,.25.05l5.76,3.81a.31.31,0,0,1,.16.21.42.42,0,0,1-.06.26l-.56.84a.27.27,0,0,1-.21.15.35.35,0,0,1-.26-.05l-2.07-1.37-4.11,6.21a.31.31,0,0,1-.45.1l-1.06-.7A.31.31,0,0,1,107.7,26.91Z"/><path class="cls-1" d="M117,28.9a.33.33,0,0,1,.09-.23l.63-.67a.27.27,0,0,1,.23-.11.35.35,0,0,1,.23.09l3,2.84a.3.3,0,0,1,.1.22.32.32,0,0,1-.09.23l-.62.68a.33.33,0,0,1-.23.1.27.27,0,0,1-.23-.08l-3.05-2.84A.34.34,0,0,1,117,28.9Z"/><path class="cls-1" d="M120.77,38.09a.29.29,0,0,1,.11-.19l.12,0L130,35.3a.49.49,0,0,1,.56.2l.88,1.2a.49.49,0,0,1,0,.59l-5.11,7.78-.09.09a.26.26,0,0,1-.21.05.28.28,0,0,1-.18-.11l-.72-1a.39.39,0,0,1,0-.47l1-1.47L123.66,39l-1.69.47a.38.38,0,0,1-.43-.16l-.72-1A.28.28,0,0,1,120.77,38.09Zm4.44.33,1.8,2.46,2.46-3.7Z"/><path class="cls-1" d="M128.45,49.72a.33.33,0,0,1,.17-.18l8-3.62a.31.31,0,0,1,.25,0,.35.35,0,0,1,.18.18l.52,1.16a.32.32,0,0,1,0,.25.35.35,0,0,1-.18.18l-6.86,3.08,1.76,3.91a.34.34,0,0,1,0,.26.33.33,0,0,1-.17.18l-.89.4a.31.31,0,0,1-.25,0,.34.34,0,0,1-.18-.19L128.46,50A.31.31,0,0,1,128.45,49.72Z"/><path class="cls-1" d="M132.63,60.47a.35.35,0,0,1,.2-.14l8.6-2a.3.3,0,0,1,.25,0,.34.34,0,0,1,.14.21l.28,1.24a.35.35,0,0,1,0,.25.33.33,0,0,1-.21.13l-7.33,1.67.95,4.18a.33.33,0,0,1,0,.26.31.31,0,0,1-.2.14l-1,.22a.32.32,0,0,1-.25,0,.34.34,0,0,1-.14-.22l-1.31-5.73A.32.32,0,0,1,132.63,60.47Z"/><path class="cls-1" d="M76.22,130.8A54.59,54.59,0,0,1,55,25.93,54.59,54.59,0,0,1,97.46,126.51,54.14,54.14,0,0,1,76.22,130.8Zm0-106.71a52,52,0,1,0,20.29,4.1A51.77,51.77,0,0,0,76.22,24.09Z"/><path class="cls-1" d="M76.22,78.5A5.73,5.73,0,1,1,82,72.77,5.74,5.74,0,0,1,76.22,78.5Zm0-9a3.27,3.27,0,1,0,3.27,3.27A3.27,3.27,0,0,0,76.22,69.5Z"/><circle class="cls-1" cx="103.26" cy="52.12" r="4.5"/><circle class="cls-1" cx="84.33" cy="101.91" r="4.5"/><circle class="cls-1" cx="52.25" cy="93.91" r="4.5"/><path class="cls-1" d="M76.22,110.38c-4.16,0-8-4.07-10.7-11.46-2.6-7-4-16.29-4-26.15s1.43-19.15,4-26.15c2.74-7.39,6.54-11.46,10.7-11.46s8,4.07,10.7,11.46c2.6,7,4,16.29,4,26.15s-1.43,19.15-4,26.15C84.18,106.31,80.38,110.38,76.22,110.38Zm0-72.76c-3,0-6.07,3.59-8.4,9.85C65.32,54.21,64,63.19,64,72.77s1.37,18.56,3.87,25.3c2.33,6.26,5.39,9.85,8.4,9.85s6.07-3.59,8.39-9.85c2.5-6.74,3.88-15.72,3.88-25.3s-1.38-18.56-3.88-25.3C82.29,41.21,79.23,37.62,76.22,37.62Z"/><path class="cls-1" d="M53.45,95.09c-5.14,0-8.7-1.47-10.24-4.29-2-3.64-.24-8.93,4.93-14.88,4.9-5.64,12.36-11.35,21-16.08s17.49-7.92,24.88-9c7.8-1.14,13.19.25,15.18,3.9s.25,8.93-4.92,14.88C99.4,75.26,91.93,81,83.28,85.7s-17.49,7.92-24.88,9A34.51,34.51,0,0,1,53.45,95.09ZM99,52.91a33.14,33.14,0,0,0-4.64.36c-7.11,1-15.65,4.14-24.06,8.73S54.71,72.11,50,77.53c-4.38,5-6.06,9.45-4.62,12.1s6.06,3.6,12.67,2.64c7.12-1,15.66-4.14,24.06-8.73S97.73,73.43,102.44,68c4.39-5.05,6.07-9.45,4.63-12.1C106,53.94,103.15,52.91,99,52.91Z"/><path class="cls-1" d="M99,95.09A34.4,34.4,0,0,1,94,94.7c-7.39-1.08-16.23-4.28-24.88-9S53,75.26,48.14,69.62c-5.17-6-6.92-11.24-4.93-14.88s7.39-5,15.19-3.9c7.39,1.08,16.23,4.28,24.88,9s16.12,10.44,21,16.08c5.17,6,6.92,11.24,4.92,14.88C107.69,93.62,104.12,95.09,99,95.09ZM53.41,52.91c-4.12,0-7,1-8,3C43.93,58.56,45.61,63,50,68,54.71,73.43,61.93,79,70.33,83.54s17,7.69,24.06,8.73c6.61,1,11.23,0,12.68-2.64s-.24-7-4.63-12.1C97.73,72.11,90.51,66.59,82.1,62S65.16,54.31,58,53.27A33,33,0,0,0,53.41,52.91Z"/></g></g></svg>