<svg xmlns="http://www.w3.org/2000/svg" viewBox="0 0 152.44 152.44"><defs><style>.cls-1{fill:#ff5f58;}</style></defs><title>badge-1_alt</title><g id="Layer_2" data-name="Layer 2"><g id="Layer_1-2" data-name="Layer 1"><path class="cls-1" d="M76.22,130.8A54.59,54.59,0,0,1,55,25.93,54.59,54.59,0,0,1,97.46,126.51,54.14,54.14,0,0,1,76.22,130.8Zm0-106.71a52,52,0,1,0,20.29,4.1A51.77,51.77,0,0,0,76.22,24.09Z"/><path class="cls-1" d="M76.22,152.44a75.92,75.92,0,1,1,29.67-6A75.84,75.84,0,0,1,76.22,152.44Zm0-150A73.78,73.78,0,0,0,47.51,144.18,73.78,73.78,0,0,0,104.93,8.25,73.38,73.38,0,0,0,76.22,2.46Z"/><path class="cls-1" d="M18.63,65.92a.32.32,0,0,1-.25,0l-7.31-1.41L10.59,67a.3.3,0,0,1-.13.21.33.33,0,0,1-.26,0l-1-.19A.36.36,0,0,1,9,67a.35.35,0,0,1-.05-.25l1.31-6.79a.37.37,0,0,1,.14-.22.33.33,0,0,1,.26,0l1,.19a.33.33,0,0,1,.23.14.31.31,0,0,1,0,.25l-.47,2.45,7.32,1.41a.3.3,0,0,1,.21.13.3.3,0,0,1,0,.25l-.24,1.25A.3.3,0,0,1,18.63,65.92Z"/><path class="cls-1" d="M21,56.49a.31.31,0,0,1-.25,0L12.68,53a.4.4,0,0,1-.19-.17.34.34,0,0,1,0-.26L13,51.42a.35.35,0,0,1,.19-.19.34.34,0,0,1,.26,0l3.19,1.38L18.2,49,15,47.62a.34.34,0,0,1-.19-.18.36.36,0,0,1,0-.25l.5-1.16a.32.32,0,0,1,.18-.18.34.34,0,0,1,.26,0l8.08,3.49a.35.35,0,0,1,.18.18.31.31,0,0,1,0,.25L23.51,51a.28.28,0,0,1-.18.17.29.29,0,0,1-.24,0l-3.32-1.43L18.2,53.31l3.32,1.43a.28.28,0,0,1,.17.18.34.34,0,0,1,0,.26l-.49,1.14A.33.33,0,0,1,21,56.49Z"/><path class="cls-1" d="M26.94,44.55a.26.26,0,0,1-.24-.06l-7.14-5.14a.37.37,0,0,1-.15-.22.31.31,0,0,1,.06-.24L23,34.05a.32.32,0,0,1,.22-.14.29.29,0,0,1,.25.06l.74.53a.3.3,0,0,1,.13.22.32.32,0,0,1-.07.24l-2.59,3.6L23.56,40,26,36.59a.32.32,0,0,1,.22-.14.29.29,0,0,1,.25.06l.69.5a.32.32,0,0,1,.14.22.37.37,0,0,1-.07.24l-2.42,3.36,2,1.43,2.66-3.68a.38.38,0,0,1,.21-.15.29.29,0,0,1,.25.06l.75.54a.3.3,0,0,1,.13.21.33.33,0,0,1-.07.25l-3.55,4.93A.3.3,0,0,1,26.94,44.55Z"/><path class="cls-1" d="M40,30.21a.31.31,0,0,1-.21-.14l-5.06-7.21a.33.33,0,0,1-.06-.25.3.3,0,0,1,.13-.21l3-2.08a3.85,3.85,0,0,1,2.55-.84,2.71,2.71,0,0,1,2,1.3,2.66,2.66,0,0,1,.51,2.34,4,4,0,0,1-1.68,2.09l-1.62,1.14L41.35,29a.28.28,0,0,1,.06.24.37.37,0,0,1-.15.22l-1.06.74A.34.34,0,0,1,40,30.21Zm.28-6.2A1.76,1.76,0,0,0,41,23a1.42,1.42,0,0,0-.29-1.13,1.52,1.52,0,0,0-1-.67,1.66,1.66,0,0,0-1.21.38L37,22.72l1.69,2.41Z"/><path class="cls-1" d="M50.55,23.58a.32.32,0,0,1-.18-.18l-3.49-8.09a.34.34,0,0,1,0-.26.37.37,0,0,1,.18-.17l1.17-.5a.32.32,0,0,1,.25,0,.29.29,0,0,1,.17.19l3,6.9,3.94-1.69a.3.3,0,0,1,.26,0,.33.33,0,0,1,.18.17l.38.89a.28.28,0,0,1,0,.25.31.31,0,0,1-.18.19l-5.4,2.32A.31.31,0,0,1,50.55,23.58Z"/><path class="cls-1" d="M60.91,19.59a.29.29,0,0,1-.12-.18v-.12l1.56-9.18a.49.49,0,0,1,.42-.42l1.46-.28a.5.5,0,0,1,.54.24l4.81,8,0,.11a.25.25,0,0,1,0,.22.25.25,0,0,1-.17.11l-1.19.23a.4.4,0,0,1-.43-.18l-.92-1.49L63,17.36l-.3,1.73a.39.39,0,0,1-.34.32l-1.18.23A.28.28,0,0,1,60.91,19.59Zm2.21-3.86,3-.57-2.28-3.8Z"/><path class="cls-1" d="M75.9,17.72a.32.32,0,0,1-.09-.23l0-3L72.74,8.73a.9.9,0,0,1,0-.15A.29.29,0,0,1,73,8.3l1.22,0a.49.49,0,0,1,.42.26l2.2,4,2.35-3.88a.67.67,0,0,1,.16-.18.41.41,0,0,1,.25-.07l1.22,0a.28.28,0,0,1,.2.08.3.3,0,0,1,.08.2.33.33,0,0,1,0,.15l-3.29,5.62-.05,3a.29.29,0,0,1-.09.23.37.37,0,0,1-.25.09l-1.24,0A.33.33,0,0,1,75.9,17.72Z"/><path class="cls-1" d="M86.47,17.81A3.66,3.66,0,0,1,86,15c.05-.26.13-.67.26-1.23s.23-1,.29-1.22a3.55,3.55,0,0,1,1.66-2.33,4.18,4.18,0,0,1,3-.29,4.91,4.91,0,0,1,2,.89,3.6,3.6,0,0,1,1.1,1.32,2.37,2.37,0,0,1,.2,1.32.27.27,0,0,1-.13.18.28.28,0,0,1-.22,0l-1.39-.31a.31.31,0,0,1-.19-.1.55.55,0,0,1-.08-.2,1.88,1.88,0,0,0-.45-1,2.12,2.12,0,0,0-1.18-.63,2.07,2.07,0,0,0-1.56.17A2.14,2.14,0,0,0,88.44,13c-.07.26-.16.64-.28,1.16s-.19.9-.24,1.16A2.25,2.25,0,0,0,88.11,17a2.12,2.12,0,0,0,1.34.83,2.25,2.25,0,0,0,1.62-.16,2,2,0,0,0,.9-1.38l.1-.41-1.61-.36a.34.34,0,0,1-.21-.14.36.36,0,0,1,0-.25l.17-.72a.31.31,0,0,1,.14-.21.34.34,0,0,1,.24,0l3.17.72a.34.34,0,0,1,.22.14.36.36,0,0,1,0,.25l-.32,1.39a3.68,3.68,0,0,1-.92,1.8,3.28,3.28,0,0,1-1.66.94,5,5,0,0,1-2.2,0A4.15,4.15,0,0,1,86.47,17.81Z"/><path class="cls-1" d="M98.14,21.87a.31.31,0,0,1,0-.25l3.77-8a.37.37,0,0,1,.18-.19.34.34,0,0,1,.26,0l3.16,1.5a4,4,0,0,1,2,1.81,2.71,2.71,0,0,1-.09,2.38,2.77,2.77,0,0,1-1.14,1.3,2.63,2.63,0,0,1-1.61.3l.3,4a.33.33,0,0,1,0,.15.28.28,0,0,1-.17.15.26.26,0,0,1-.21,0l-1.12-.53a.5.5,0,0,1-.26-.23.9.9,0,0,1-.09-.34l-.19-3.63-1.67-.8-1.39,2.94a.32.32,0,0,1-.19.17.34.34,0,0,1-.26,0l-1.12-.54A.3.3,0,0,1,98.14,21.87Zm5.48-2.95a1.81,1.81,0,0,0,1.26.19,1.33,1.33,0,0,0,.81-.77,1.34,1.34,0,0,0,.09-1.13,1.75,1.75,0,0,0-.94-.86l-1.7-.81-1.21,2.57Z"/><path class="cls-1" d="M110.28,27.72a3.72,3.72,0,0,1,.85-2.85c.15-.21.39-.52.7-.92s.55-.71.72-.91a3.7,3.7,0,0,1,2.57-1.49,4.05,4.05,0,0,1,2.84,1,4.11,4.11,0,0,1,1.66,2.51,3.7,3.7,0,0,1-.82,2.86c-.3.42-.53.74-.69.94l-.73.89a3.67,3.67,0,0,1-2.56,1.51,4.12,4.12,0,0,1-2.84-1A4.17,4.17,0,0,1,110.28,27.72Zm4.13,1.72a2.45,2.45,0,0,0,1.47-1c.34-.42.58-.7.69-.85s.35-.46.65-.88a2.38,2.38,0,0,0,.56-1.67,1.9,1.9,0,0,0-.78-1.3,1.94,1.94,0,0,0-1.47-.45,2.39,2.39,0,0,0-1.47,1l-.68.86-.66.87a2.4,2.4,0,0,0-.58,1.65,2,2,0,0,0,.8,1.32A1.92,1.92,0,0,0,114.41,29.44Z"/><path class="cls-1" d="M120.17,36.47a3.67,3.67,0,0,1,1.54-2.57L126,30.4a.31.31,0,0,1,.24-.08.26.26,0,0,1,.22.12l.79,1a.3.3,0,0,1,.08.25.33.33,0,0,1-.12.23l-4.26,3.49a2.29,2.29,0,0,0-.92,1.41,1.89,1.89,0,0,0,.5,1.46,1.87,1.87,0,0,0,1.33.77,2.31,2.31,0,0,0,1.57-.63l4.25-3.5a.33.33,0,0,1,.25-.08.3.3,0,0,1,.22.13l.79,1a.3.3,0,0,1,.08.25.34.34,0,0,1-.13.22l-4.25,3.49a3.71,3.71,0,0,1-2.83,1,4.08,4.08,0,0,1-2.52-1.6A4.11,4.11,0,0,1,120.17,36.47Z"/><path class="cls-1" d="M126.92,46.81a.31.31,0,0,1,.16-.18l7.87-4a.4.4,0,0,1,.26,0,.32.32,0,0,1,.19.17l.47,1a.41.41,0,0,1,0,.45l-3.63,6.15,5.27-2.64a.3.3,0,0,1,.26,0,.31.31,0,0,1,.19.17l.52,1a.33.33,0,0,1,0,.26.35.35,0,0,1-.17.19l-7.86,3.94a.34.34,0,0,1-.26,0,.31.31,0,0,1-.19-.16l-.48-1a.43.43,0,0,1,0-.46l3.52-6.08-5.17,2.59a.31.31,0,0,1-.43-.15l-.52-1A.31.31,0,0,1,126.92,46.81Z"/><path class="cls-1" d="M132.17,58.74a.28.28,0,0,1,.2-.15l8.55-2.1a.35.35,0,0,1,.25,0,.28.28,0,0,1,.15.21l.79,3.2q.94,3.89-2.6,4.83l-1,.28-1,.22a3.78,3.78,0,0,1-2.95-.32,4.27,4.27,0,0,1-1.59-2.69l-.8-3.27A.29.29,0,0,1,132.17,58.74Zm2.27,3.07a2.23,2.23,0,0,0,.87,1.46,2.37,2.37,0,0,0,1.74.12l1-.22,1-.26a1.92,1.92,0,0,0,1.56-2.67l-.39-1.6L134,60.15Z"/><rect class="cls-1" x="25.08" y="90.11" width="102.28" height="2.46"/><rect class="cls-1" x="31.23" y="103.63" width="89.99" height="2.46"/><rect class="cls-1" x="43.52" y="117.16" width="65.4" height="2.46"/><rect class="cls-1" x="106.95" y="78.8" width="2.46" height="12.54"/><rect class="cls-1" x="42.53" y="81.87" width="2.46" height="9.47"/><path class="cls-1" d="M108.06,80c-2.83,0-5.44-1.89-7.34-5.32A25,25,0,0,1,98,62.82a25,25,0,0,1,2.74-11.9c1.9-3.42,4.51-5.31,7.34-5.31s5.43,1.89,7.33,5.31a25,25,0,0,1,2.75,11.9,25,25,0,0,1-2.75,11.89C113.49,78.14,110.89,80,108.06,80Zm0-32c-4.13,0-7.62,6.75-7.62,14.75s3.49,14.75,7.62,14.75,7.62-6.75,7.62-14.75S112.19,48.07,108.06,48.07Z"/><path class="cls-1" d="M43.76,83a7.75,7.75,0,1,1,7.75-7.74A7.75,7.75,0,0,1,43.76,83Zm0-13a5.29,5.29,0,1,0,5.29,5.29A5.29,5.29,0,0,0,43.76,70Z"/><path class="cls-1" d="M76.22,46.41a5.35,5.35,0,1,1,5.35-5.35A5.36,5.36,0,0,1,76.22,46.41Zm0-8.24a2.89,2.89,0,1,0,2.89,2.89A2.89,2.89,0,0,0,76.22,38.17Z"/><path class="cls-1" d="M43.76,70a5,5,0,1,1,5-5A5,5,0,0,1,43.76,70Zm0-7.62a2.58,2.58,0,1,0,2.59,2.58A2.59,2.59,0,0,0,43.76,62.33Z"/><path class="cls-1" d="M69.21,87.9a5,5,0,0,1-5-5V61.1h2.46V82.86a2.58,2.58,0,0,0,5.16,0V61.1h2.46V82.86A5,5,0,0,1,69.21,87.9Z"/><path class="cls-1" d="M83.72,87.9a5,5,0,0,1-5-5V61.1h2.46V82.86a2.58,2.58,0,1,0,5.16,0V61.1h2.46V82.86A5,5,0,0,1,83.72,87.9Z"/><path class="cls-1" d="M94.53,92.57a1.23,1.23,0,0,1-1.22-1.12L90.59,62.33H62L59.25,91.45a1.23,1.23,0,0,1-2.45-.23L59.63,61a1.23,1.23,0,0,1,1.22-1.11H91.71A1.23,1.23,0,0,1,92.93,61l2.83,30.24a1.23,1.23,0,0,1-1.11,1.34Z"/><path class="cls-1" d="M88.14,42.29H84.26a1.23,1.23,0,0,1,0-2.46h3.88a1.23,1.23,0,0,1,0,2.46Z"/><path class="cls-1" d="M68.18,42.29H64.29a1.23,1.23,0,0,1,0-2.46h3.89a1.23,1.23,0,1,1,0,2.46Z"/><path class="cls-1" d="M76.22,54.21A1.23,1.23,0,0,1,75,53V49.1a1.23,1.23,0,0,1,2.46,0V53A1.23,1.23,0,0,1,76.22,54.21Z"/><path class="cls-1" d="M76.22,34.25A1.23,1.23,0,0,1,75,33V29.14a1.23,1.23,0,0,1,2.46,0V33A1.23,1.23,0,0,1,76.22,34.25Z"/><path class="cls-1" d="M84.65,50.72a1.24,1.24,0,0,1-.87-.36L81,47.61a1.23,1.23,0,0,1,1.74-1.74l2.75,2.75a1.23,1.23,0,0,1,0,1.74A1.22,1.22,0,0,1,84.65,50.72Z"/><path class="cls-1" d="M70.54,36.61a1.22,1.22,0,0,1-.87-.36L66.92,33.5a1.23,1.23,0,1,1,1.74-1.74l2.74,2.75a1.23,1.23,0,0,1,0,1.74A1.21,1.21,0,0,1,70.54,36.61Z"/><path class="cls-1" d="M67.79,50.72a1.22,1.22,0,0,1-.87-.36,1.23,1.23,0,0,1,0-1.74l2.75-2.75a1.23,1.23,0,0,1,1.73,1.74l-2.74,2.75A1.24,1.24,0,0,1,67.79,50.72Z"/><path class="cls-1" d="M81.9,36.61a1.23,1.23,0,0,1-.87-2.1l2.75-2.75a1.23,1.23,0,1,1,1.74,1.74l-2.75,2.75A1.22,1.22,0,0,1,81.9,36.61Z"/></g></g></svg>