<svg xmlns="http://www.w3.org/2000/svg" viewBox="0 0 152.44 152.44"><defs><style>.cls-1{fill:#ff5f58;}</style></defs><title>badge-4_alt</title><g id="Layer_2" data-name="Layer 2"><g id="Layer_1-2" data-name="Layer 1"><path class="cls-1" d="M76.22,152.44a75.92,75.92,0,1,1,29.67-6A75.84,75.84,0,0,1,76.22,152.44Zm0-150A73.78,73.78,0,0,0,47.51,144.18,73.78,73.78,0,0,0,104.93,8.25,73.38,73.38,0,0,0,76.22,2.46Z"/><path class="cls-1" d="M42.14,28.67a.3.3,0,0,1-.21-.13l-4.26-6.12-2.05,1.43a.3.3,0,0,1-.24,0,.32.32,0,0,1-.22-.14l-.58-.83a.35.35,0,0,1-.07-.25.35.35,0,0,1,.14-.22l5.68-3.94a.29.29,0,0,1,.25-.06.32.32,0,0,1,.22.14l.58.83a.4.4,0,0,1,.06.26.32.32,0,0,1-.15.21l-2,1.43,4.26,6.11a.3.3,0,0,1,.05.24.26.26,0,0,1-.14.21l-1,.73A.29.29,0,0,1,42.14,28.67Z"/><path class="cls-1" d="M50.42,23.57a.29.29,0,0,1-.17-.17l-3.36-8.14a.34.34,0,0,1,0-.26.32.32,0,0,1,.18-.18l1.15-.47a.34.34,0,0,1,.26,0,.37.37,0,0,1,.18.19L50,17.75l3.65-1.51L52.3,13a.3.3,0,0,1,0-.26.3.3,0,0,1,.17-.18l1.17-.48a.28.28,0,0,1,.25,0,.29.29,0,0,1,.17.19l3.36,8.14a.29.29,0,0,1,0,.24.32.32,0,0,1-.18.18l-1.17.48a.31.31,0,0,1-.42-.18l-1.38-3.33-3.65,1.5L52,22.67a.36.36,0,0,1,0,.25.34.34,0,0,1-.19.18l-1.15.47A.28.28,0,0,1,50.42,23.57Z"/><path class="cls-1" d="M63,19.15a.31.31,0,0,1-.14-.21l-1.52-8.67a.38.38,0,0,1,0-.26.33.33,0,0,1,.22-.13l5.87-1a.33.33,0,0,1,.26.05.34.34,0,0,1,.14.22L68,10a.3.3,0,0,1,0,.25.36.36,0,0,1-.22.13l-4.37.77.41,2.33,4.07-.72a.37.37,0,0,1,.26.05.34.34,0,0,1,.13.23l.15.84a.31.31,0,0,1-.05.25.34.34,0,0,1-.22.12L64.05,15l.42,2.41L69,16.6a.35.35,0,0,1,.25,0,.31.31,0,0,1,.14.22l.16.9a.35.35,0,0,1,0,.25.38.38,0,0,1-.23.13l-6,1.05A.29.29,0,0,1,63,19.15Z"/><path class="cls-1" d="M81.46,17.81a.28.28,0,0,1,0-.22l0-.11L86.08,9.4a.48.48,0,0,1,.54-.25l1.46.24a.5.5,0,0,1,.43.41l1.78,9.14v.12a.35.35,0,0,1-.12.19.33.33,0,0,1-.21.05l-1.19-.2a.39.39,0,0,1-.34-.32l-.35-1.71-4-.66-.88,1.52a.4.4,0,0,1-.43.19l-1.19-.2A.25.25,0,0,1,81.46,17.81Zm3.4-2.87,3,.5-.83-4.36Z"/><path class="cls-1" d="M95.13,20.85a.36.36,0,0,1,0-.25l.46-1.28a.32.32,0,0,1,.17-.19.31.31,0,0,1,.25,0l1.28.46a.32.32,0,0,1,.19.17.31.31,0,0,1,0,.25L97,21.28a.34.34,0,0,1-.16.19.33.33,0,0,1-.26,0L95.32,21A.32.32,0,0,1,95.13,20.85Z"/><path class="cls-1" d="M102.2,23.8a.31.31,0,0,1,0-.25l4-7.84a.34.34,0,0,1,.44-.14l1.15.6a.3.3,0,0,1,.17.18.31.31,0,0,1,0,.26l-4,7.83a.33.33,0,0,1-.18.17.28.28,0,0,1-.25,0L102.36,24A.33.33,0,0,1,102.2,23.8Z"/><path class="cls-1" d="M108.78,27.62a.32.32,0,0,1,0-.25l.78-1.12a.3.3,0,0,1,.21-.13.29.29,0,0,1,.24.05l1.12.78a.31.31,0,0,1,.14.21.34.34,0,0,1,0,.24l-.78,1.12a.31.31,0,0,1-.21.14.3.3,0,0,1-.25-.06l-1.12-.78A.3.3,0,0,1,108.78,27.62Z"/><path class="cls-1" d="M76.22,130.8A54.59,54.59,0,0,1,55,25.93,54.59,54.59,0,0,1,97.46,126.51,54.14,54.14,0,0,1,76.22,130.8Zm0-106.71a52,52,0,1,0,20.29,4.1A51.77,51.77,0,0,0,76.22,24.09Z"/><path class="cls-1" d="M102.15,108.06H50.25A1.23,1.23,0,0,1,49,106.83V66.4a9.27,9.27,0,0,1,9.26-9.26H94.12a9.27,9.27,0,0,1,9.26,9.26v40.43A1.23,1.23,0,0,1,102.15,108.06ZM51.48,105.6h49.44V66.4a6.81,6.81,0,0,0-6.8-6.8H58.29a6.82,6.82,0,0,0-6.81,6.8Z"/><path class="cls-1" d="M110.4,92.25h-8.25A1.23,1.23,0,0,1,100.92,91V74.18A1.23,1.23,0,0,1,102.15,73h8.25a1.23,1.23,0,0,1,1.23,1.23V91A1.23,1.23,0,0,1,110.4,92.25Zm-7-2.46h5.79V75.41h-5.79Z"/><path class="cls-1" d="M50.25,92.25H42A1.23,1.23,0,0,1,40.78,91V74.18A1.23,1.23,0,0,1,42,73h8.24a1.23,1.23,0,0,1,1.23,1.23V91A1.23,1.23,0,0,1,50.25,92.25Zm-7-2.46H49V75.41h-5.8Z"/><path class="cls-1" d="M76.2,47.85a6.55,6.55,0,1,1,6.55-6.55A6.55,6.55,0,0,1,76.2,47.85Zm0-10.64a4.1,4.1,0,1,0,4.09,4.09A4.1,4.1,0,0,0,76.2,37.21Z"/><path class="cls-1" d="M76.2,59.6A1.24,1.24,0,0,1,75,58.37V46.62a1.23,1.23,0,0,1,2.46,0V58.37A1.23,1.23,0,0,1,76.2,59.6Z"/><path class="cls-1" d="M65.94,82.29a6.44,6.44,0,1,1,6.44-6.44A6.45,6.45,0,0,1,65.94,82.29Zm0-10.42a4,4,0,1,0,4,4A4,4,0,0,0,65.94,71.87Z"/><path class="cls-1" d="M86.67,82.29a6.44,6.44,0,1,1,6.44-6.44A6.45,6.45,0,0,1,86.67,82.29Zm0-10.42a4,4,0,1,0,4,4A4,4,0,0,0,86.67,71.87Z"/><path class="cls-1" d="M89.17,108.06h-26A1.23,1.23,0,0,1,62,106.83V92.41a1.23,1.23,0,0,1,1.23-1.23h26a1.23,1.23,0,0,1,1.23,1.23v14.42A1.23,1.23,0,0,1,89.17,108.06ZM64.41,105.6H87.94v-12H64.41Z"/><path class="cls-1" d="M76.13,108a1.23,1.23,0,0,1-1.23-1.23V92.41a1.23,1.23,0,0,1,2.46,0v14.38A1.23,1.23,0,0,1,76.13,108Z"/></g></g></svg>