<svg xmlns="http://www.w3.org/2000/svg" viewBox="0 0 152.44 152.44"><defs><style>.cls-1{fill:#ff5f58;}</style></defs><title>badge-2_alt</title><g id="Layer_2" data-name="Layer 2"><g id="Layer_1-2" data-name="Layer 1"><path class="cls-1" d="M32.49,39.58a.33.33,0,0,1-.23-.09l-5.49-5L25.08,36.3a.34.34,0,0,1-.23.11.33.33,0,0,1-.24-.1l-.75-.68a.4.4,0,0,1-.12-.23.28.28,0,0,1,.09-.24l4.67-5.1a.3.3,0,0,1,.23-.11A.36.36,0,0,1,29,30l.75.69a.33.33,0,0,1,.12.23.36.36,0,0,1-.1.25L28.06,33l5.5,5a.39.39,0,0,1,.11.22.36.36,0,0,1-.09.24l-.86.94A.34.34,0,0,1,32.49,39.58Z"/><path class="cls-1" d="M39.46,32.78a.33.33,0,0,1-.21-.13l-5.07-7.2a.33.33,0,0,1-.07-.25.32.32,0,0,1,.14-.21l1-.72a.31.31,0,0,1,.26-.06.3.3,0,0,1,.21.14l2,2.84L41,24.92l-2-2.84a.31.31,0,0,1-.06-.26.34.34,0,0,1,.13-.21l1-.72a.29.29,0,0,1,.25-.06.38.38,0,0,1,.21.15l5.07,7.19a.36.36,0,0,1,.06.24.29.29,0,0,1-.14.22l-1,.72a.37.37,0,0,1-.25.06.36.36,0,0,1-.21-.14L42,26.32,38.73,28.6l2.08,2.95a.29.29,0,0,1,0,.24.32.32,0,0,1-.14.22l-1,.71A.29.29,0,0,1,39.46,32.78Z"/><path class="cls-1" d="M50.74,25.68a.3.3,0,0,1-.17-.18l-3.41-8.11a.34.34,0,0,1,0-.26.32.32,0,0,1,.18-.18l5.5-2.31a.34.34,0,0,1,.26,0,.31.31,0,0,1,.18.19l.36.83a.33.33,0,0,1,0,.26.37.37,0,0,1-.19.18L49.34,17.8,50.26,20l3.81-1.61a.34.34,0,0,1,.26,0,.35.35,0,0,1,.19.19l.33.79a.31.31,0,0,1,0,.25.37.37,0,0,1-.19.18l-3.81,1.6.94,2.26L56,21.88a.34.34,0,0,1,.26,0,.31.31,0,0,1,.18.19l.36.84a.33.33,0,0,1,0,.26.35.35,0,0,1-.19.17L51,25.68A.36.36,0,0,1,50.74,25.68Z"/><path class="cls-1" d="M70.45,20.05a3.09,3.09,0,0,1-1.37-.87,2.32,2.32,0,0,1-.56-1.27.31.31,0,0,1,.07-.2.26.26,0,0,1,.2-.1L70,17.53a.49.49,0,0,1,.25,0,1,1,0,0,1,.18.18,1.37,1.37,0,0,0,.66.73,2.36,2.36,0,0,0,1.34.23,2.59,2.59,0,0,0,1.4-.4,1,1,0,0,0,.43-.9.85.85,0,0,0-.28-.6,2.07,2.07,0,0,0-.76-.38c-.34-.1-.84-.21-1.5-.34a5.72,5.72,0,0,1-2.39-.86,2.2,2.2,0,0,1-.86-1.73,2.44,2.44,0,0,1,.35-1.43A2.92,2.92,0,0,1,70,11a4.71,4.71,0,0,1,1.85-.47,4.48,4.48,0,0,1,2,.28,3.12,3.12,0,0,1,1.31.9,2.18,2.18,0,0,1,.52,1.14.32.32,0,0,1-.07.2.28.28,0,0,1-.2.1l-1.28.08a.4.4,0,0,1-.42-.22,1,1,0,0,0-.57-.69A2.1,2.1,0,0,0,72,12.14a2,2,0,0,0-1.15.36.91.91,0,0,0-.37.85.82.82,0,0,0,.25.59,1.76,1.76,0,0,0,.7.38,9.69,9.69,0,0,0,1.36.33,9.16,9.16,0,0,1,2,.49,2.52,2.52,0,0,1,1.1.79,2.4,2.4,0,0,1,.42,1.28,2.47,2.47,0,0,1-.39,1.55,2.92,2.92,0,0,1-1.29,1.06,5.6,5.6,0,0,1-2,.47A5.29,5.29,0,0,1,70.45,20.05Z"/><path class="cls-1" d="M81.56,20.09a.34.34,0,0,1-.06-.24l1.29-8.71a.42.42,0,0,1,.12-.23.35.35,0,0,1,.25-.06l3.59.53a3.92,3.92,0,0,1,2.43,1.14,2.76,2.76,0,0,1,.59,2.36,2.66,2.66,0,0,1-1.25,2,4,4,0,0,1-2.65.37l-2-.29-.47,3.13a.3.3,0,0,1-.12.22.45.45,0,0,1-.26.05l-1.28-.19A.38.38,0,0,1,81.56,20.09ZM86,15.79a1.75,1.75,0,0,0,1.24-.2,1.39,1.39,0,0,0,.56-1,1.46,1.46,0,0,0-.23-1.14,1.68,1.68,0,0,0-1.14-.57l-1.93-.28L84.1,15.5Z"/><path class="cls-1" d="M92.43,22.06a.28.28,0,0,1,0-.22l.06-.1,6.08-7a.5.5,0,0,1,.58-.15l1.39.52a.49.49,0,0,1,.34.49V25a.31.31,0,0,1-.16.16.26.26,0,0,1-.21,0l-1.13-.42a.38.38,0,0,1-.27-.37l0-1.75-3.75-1.4-1.15,1.32a.38.38,0,0,1-.46.1l-1.13-.41A.29.29,0,0,1,92.43,22.06Zm3.89-2.16L99.19,21V16.52Z"/><path class="cls-1" d="M105.24,27.52a.3.3,0,0,1,0-.24l4.81-7.38a.33.33,0,0,1,.2-.15.28.28,0,0,1,.25.05l2.94,1.91a4,4,0,0,1,1.76,2.06,2.68,2.68,0,0,1-.41,2.35,2.79,2.79,0,0,1-1.3,1.13,2.68,2.68,0,0,1-1.64.09l-.24,4a.33.33,0,0,1,0,.15.35.35,0,0,1-.19.12.3.3,0,0,1-.21,0l-1-.68a.53.53,0,0,1-.23-.27.92.92,0,0,1,0-.34l.29-3.63-1.55-1-1.77,2.72a.31.31,0,0,1-.2.14.34.34,0,0,1-.26-.05l-1-.68A.28.28,0,0,1,105.24,27.52Zm5.83-2.19a1.78,1.78,0,0,0,1.21.37,1.58,1.58,0,0,0,1.15-1.77,1.75,1.75,0,0,0-.81-1l-1.58-1-1.55,2.38Z"/><path class="cls-1" d="M115.46,35a.29.29,0,0,1,.1-.23l6.23-6.21a.35.35,0,0,1,.24-.11.3.3,0,0,1,.23.1l.86.86a.32.32,0,0,1,0,.48l-2.24,2.23,4.44-.16a.65.65,0,0,1,.54.2l1,1a.28.28,0,0,1,.08.2.23.23,0,0,1-.08.2.2.2,0,0,1-.16.07l-5.49.27-.39,6a.34.34,0,0,1-.08.16.28.28,0,0,1-.2.09.26.26,0,0,1-.19-.08l-1-1a.55.55,0,0,1-.2-.36,1,1,0,0,1,0-.19l.24-4.81-2.47,2.46a.29.29,0,0,1-.23.1.34.34,0,0,1-.24-.11l-.85-.86A.3.3,0,0,1,115.46,35Z"/><path class="cls-1" d="M76.22,133a54.58,54.58,0,1,1,0-109.16A54.59,54.59,0,0,1,97.46,128.72,54.14,54.14,0,0,1,76.22,133Zm0-106.7A51.93,51.93,0,1,0,96.51,30.4,51.94,51.94,0,0,0,76.22,26.31Z"/><path class="cls-1" d="M76.23,108.27A22.6,22.6,0,0,1,53.66,85.7C53.66,73.59,74.42,50,75.31,49a1.24,1.24,0,0,1,1.84,0C78,50,98.79,73.59,98.79,85.7A22.59,22.59,0,0,1,76.23,108.27Zm0-56.6c-1.75,2-5.74,6.84-9.68,12.38C59.73,73.66,56.12,81.14,56.12,85.7a20.11,20.11,0,0,0,40.22,0c0-4.56-3.61-12-10.45-21.66C82,58.49,78,53.72,76.23,51.67Z"/><path class="cls-1" d="M76.23,108.27A14.64,14.64,0,0,1,61.6,93.64c0-3.32,2.33-8.29,6.93-14.75,3.35-4.71,6.64-8.45,6.78-8.6a1.22,1.22,0,0,1,1.84,0c.14.15,3.43,3.89,6.78,8.6,4.59,6.46,6.92,11.43,6.92,14.75A14.64,14.64,0,0,1,76.23,108.27Zm0-35.28c-1.22,1.44-3.48,4.2-5.71,7.34-5.34,7.51-6.46,11.39-6.46,13.31a12.17,12.17,0,1,0,24.33,0c0-1.93-1.12-5.81-6.47-13.33C79.69,77.17,77.44,74.43,76.23,73Z"/><path class="cls-1" d="M76.23,108.27a7.92,7.92,0,0,1-7.91-7.91c0-4,6.27-11.24,7-12a1.24,1.24,0,0,1,1.84,0c.71.81,7,8,7,12A7.91,7.91,0,0,1,76.23,108.27Zm0-17.25c-2.41,2.91-5.45,7.28-5.45,9.34a5.45,5.45,0,1,0,10.89,0C81.67,98.29,78.63,93.93,76.23,91Z"/><rect class="cls-1" x="113.96" y="77.2" width="7.38" height="2.46"/><rect class="cls-1" x="100.44" y="77.2" width="7.38" height="2.46"/><rect class="cls-1" x="31.1" y="77.2" width="7.38" height="2.46"/><rect class="cls-1" x="44.62" y="77.2" width="7.38" height="2.46"/><rect class="cls-1" x="104.54" y="101.23" width="2.46" height="13.52" transform="translate(-45.38 106.42) rotate(-45)"/><rect class="cls-1" x="45.43" y="42.11" width="2.46" height="13.52" transform="translate(-20.89 47.31) rotate(-45)"/><rect class="cls-1" x="39.9" y="106.76" width="13.52" height="2.46" transform="translate(-62.69 64.62) rotate(-45)"/><rect class="cls-1" x="99.01" y="47.65" width="13.52" height="2.46" transform="translate(-3.58 89.11) rotate(-45)"/><rect class="cls-1" x="74.99" y="113.47" width="2.46" height="7.38"/><rect class="cls-1" x="74.99" y="124.29" width="2.46" height="3.69"/><rect class="cls-1" x="74.99" y="36.02" width="2.46" height="7.38"/><rect class="cls-1" x="74.99" y="28.89" width="2.46" height="3.69"/><path class="cls-1" d="M76.22,152.44a75.92,75.92,0,1,1,29.67-6A75.84,75.84,0,0,1,76.22,152.44Zm0-150A73.78,73.78,0,0,0,47.51,144.18,73.78,73.78,0,0,0,104.93,8.25,73.38,73.38,0,0,0,76.22,2.46Z"/></g></g></svg>